<svg width="70" height="80" viewBox="0 0 70 80" fill="none" xmlns="http://www.w3.org/2000/svg">
<g clip-path="url(#clip0_43_4159)">
<path d="M50.9616 80H18.1609C13.7303 80 10.1453 75.8265 10.1453 70.6841V23.1781C10.1453 18.5467 13.0775 14.6181 17.0265 13.958L55.6276 7.54858C60.8607 6.67554 65.3662 11.8286 64.7134 17.9186L58.913 71.8446C58.4101 76.5079 54.9962 80 50.9616 80Z" fill="#F7B713"/>
<path d="M0.0428537 46.452C0.438818 56.1725 8.13336 64.626 18.8779 66.2656C31.1421 68.1395 42.7106 60.4205 44.7226 49.0391C46.7345 37.6577 38.4299 26.9151 26.1765 25.0413C22.463 24.477 18.8137 24.7964 15.464 25.8185C16.3737 21.613 20.5688 10.7958 23.6509 3.11951C24.5819 0.819803 21.4891 -1.05403 19.5949 0.670748C14.3404 5.42986 7.60897 12.8826 3.86337 22.3263C-0.652759 33.6971 0.0428537 46.452 0.0428537 46.452Z" fill="#372A84"/>
<path d="M31.859 54.9055C32.1908 63.1461 38.7188 70.3114 47.826 71.6955C58.2174 73.2819 68.0308 66.7448 69.7431 57.0881C71.4554 47.4421 64.4137 38.3285 54.0116 36.7421C50.8653 36.263 47.7618 36.5292 44.9365 37.4022C45.7071 33.8355 49.26 24.6686 51.8819 18.1528C52.6632 16.1938 50.0519 14.6181 48.436 16.0767C43.9841 20.1118 38.2693 26.436 35.0909 34.4424C31.2597 44.0884 31.8483 54.9055 31.8483 54.9055H31.859Z" fill="#4C79BA"/>
</g>
<defs>
<clipPath id="clip0_43_4159">
<rect width="70" height="80" fill="white"/>
</clipPath>
</defs>
</svg>
