<svg width="70" height="80" viewBox="0 0 70 80" fill="none" xmlns="http://www.w3.org/2000/svg">
<g clip-path="url(#clip0_49_2)">
<path d="M67.1042 4.69817H65.3726C65.1884 3.32363 63.9726 2.26181 62.4989 2.26181H55.4916V2.10181C55.4916 0.945445 54.5189 0.00726318 53.3179 0.00726318C52.1168 0.00726318 51.1442 0.945445 51.1442 2.10181V2.26181H47.9095V2.10181C47.9095 0.945445 46.9368 0.00726318 45.7358 0.00726318C44.5347 0.00726318 43.5621 0.945445 43.5621 2.10181V2.26181H40.3274V2.10181C40.3274 0.945445 39.3547 0.00726318 38.1537 0.00726318C36.9526 0.00726318 35.98 0.945445 35.98 2.10181V2.26181H32.7453V2.10181C32.7453 0.945445 31.7726 0.00726318 30.5716 0.00726318C29.3705 0.00726318 28.3979 0.945445 28.3979 2.10181V2.26181H25.1632V2.10181C25.1632 0.945445 24.1905 0.00726318 22.9895 0.00726318C21.7884 0.00726318 20.8158 0.945445 20.8158 2.10181V2.26181H13.8084C12.2095 2.26181 10.9126 3.51272 10.9126 5.06181V48.0654H2.89579C1.29684 48.0654 0 49.3164 0 50.8654V57.1782C0 64.2764 5.97579 70.0436 13.3221 70.0436H14.3463V77.2145C14.3463 78.7564 15.6432 80.0145 17.2421 80.0145H67.1042C68.7032 80.0145 70 78.7636 70 77.2145V7.49817C70 5.95635 68.7032 4.69817 67.1042 4.69817ZM64.2084 74.4073H20.1379V67.2364C20.1379 65.6945 18.8411 64.4364 17.2421 64.4364H13.3221C9.16632 64.4364 5.79158 61.1709 5.79158 57.1636V53.6509H13.8232C15.4221 53.6509 16.7189 52.4 16.7189 50.8509V7.85454H20.8674C21.0442 8.84363 21.9284 9.59272 23.0042 9.59272C24.08 9.59272 24.9642 8.83635 25.1411 7.85454H28.4495C28.6263 8.84363 29.5105 9.59272 30.5863 9.59272C31.6621 9.59272 32.5463 8.83635 32.7232 7.85454H36.0316C36.2084 8.84363 37.0926 9.59272 38.1684 9.59272C39.2442 9.59272 40.1284 8.83635 40.3053 7.85454H43.6211C43.7979 8.84363 44.6821 9.59272 45.7579 9.59272C46.8337 9.59272 47.7179 8.83635 47.8947 7.85454H51.2032C51.38 8.84363 52.2642 9.59272 53.34 9.59272C54.4158 9.59272 55.3 8.83635 55.4768 7.85454H59.6474C59.8316 9.22908 61.0474 10.2909 62.5211 10.2909H64.2305V74.4073H64.2084Z" fill="#F5F5F5"/>
<path d="M67.1042 7.49817H17.2421V77.2073H67.1042V7.49817Z" fill="#4C79BA"/>
<path d="M67.1042 78.2545H17.2421C16.6453 78.2545 16.1589 77.7818 16.1589 77.2073V7.49817C16.1589 6.91635 16.6453 6.4509 17.2421 6.4509H67.1116C67.7084 6.4509 68.1947 6.92362 68.1947 7.49817V77.2073C68.1947 77.7891 67.7084 78.2545 67.1116 78.2545H67.1042ZM18.3253 76.1527H66.021V8.54544H18.3253V76.1527Z" fill="#372A84"/>
<path d="M52.0726 67.2364H13.3221C7.56733 67.2364 2.89575 62.7273 2.89575 57.1636V50.8509H41.6536V57.1636C41.6536 59.9491 42.8252 62.4582 44.7115 64.2836C46.5979 66.1018 49.1989 67.2364 52.08 67.2364H52.0726Z" fill="#00C4EE"/>
<path d="M62.4989 5.05453V57.1636C62.4989 62.7273 57.8273 67.2364 52.0726 67.2364C49.1989 67.2364 46.5905 66.1091 44.7042 64.2836C42.8179 62.4582 41.6463 59.9491 41.6463 57.1636V50.8509H13.8231V5.05453H62.4989Z" fill="white"/>
<path d="M27.5211 19.8982V24.6036C27.5211 25.1855 27.0348 25.6509 26.4379 25.6509H21.5674C20.9632 25.6509 20.4843 25.1855 20.4843 24.6036V19.8982C20.4843 19.3164 20.9706 18.8509 21.5674 18.8509H26.4379C27.0421 18.8509 27.5211 19.3164 27.5211 19.8982ZM25.3548 23.5564V20.9455H22.6579V23.5564H25.3548Z" fill="#372A84"/>
<path d="M25.3474 20.9527H22.6505V23.5636H25.3474V20.9527Z" fill="#F7B713"/>
<path d="M52.5147 23.3018H31.6547C31.0578 23.3018 30.5715 22.8291 30.5715 22.2545C30.5715 21.68 31.0578 21.2073 31.6547 21.2073H52.5147C53.1115 21.2073 53.5978 21.68 53.5978 22.2545C53.5978 22.8291 53.1115 23.3018 52.5147 23.3018Z" fill="#372A84"/>
<path d="M27.5211 30.3127V35.0254C27.5211 35.6 27.0348 36.0727 26.4379 36.0727H21.5674C20.9632 36.0727 20.4843 35.6 20.4843 35.0254V30.3127C20.4843 29.7309 20.9706 29.2654 21.5674 29.2654H26.4379C27.0421 29.2654 27.5211 29.7309 27.5211 30.3127ZM25.3548 33.9782V31.36H22.6579V33.9782H25.3548Z" fill="#372A84"/>
<path d="M25.3474 31.36H22.6505V33.9782H25.3474V31.36Z" fill="#F7B713"/>
<path d="M52.5147 33.7164H31.6547C31.0578 33.7164 30.5715 33.2436 30.5715 32.6691C30.5715 32.0946 31.0578 31.6218 31.6547 31.6218H52.5147C53.1115 31.6218 53.5978 32.0946 53.5978 32.6691C53.5978 33.2436 53.1115 33.7164 52.5147 33.7164Z" fill="#372A84"/>
<path d="M27.5211 40.7273V45.44C27.5211 46.0218 27.0348 46.4873 26.4379 46.4873H21.5674C20.9632 46.4873 20.4843 46.0218 20.4843 45.44V40.7273C20.4843 40.1454 20.9706 39.68 21.5674 39.68H26.4379C27.0421 39.68 27.5211 40.1454 27.5211 40.7273ZM25.3548 44.3927V41.7745H22.6579V44.3927H25.3548Z" fill="#372A84"/>
<path d="M25.3474 41.7745H22.6505V44.3927H25.3474V41.7745Z" fill="#F7B713"/>
<path d="M52.5147 44.1382H31.6547C31.0578 44.1382 30.5715 43.6655 30.5715 43.0909C30.5715 42.5164 31.0578 42.0436 31.6547 42.0436H52.5147C53.1115 42.0436 53.5978 42.5164 53.5978 43.0909C53.5978 43.6655 53.1115 44.1382 52.5147 44.1382Z" fill="#372A84"/>
<path d="M52.5147 15.2436H23.8147C23.2179 15.2436 22.7316 14.7709 22.7316 14.1964C22.7316 13.6218 23.2179 13.1491 23.8147 13.1491H52.5147C53.1116 13.1491 53.5979 13.6218 53.5979 14.1964C53.5979 14.7709 53.1116 15.2436 52.5147 15.2436Z" fill="#372A84"/>
<path d="M62.4989 4.00727H54.4084V2.09454C54.4084 1.51273 53.9221 1.04727 53.3253 1.04727C52.7284 1.04727 52.2421 1.52 52.2421 2.09454V4.00727H46.8337V2.09454C46.8337 1.51273 46.3474 1.04727 45.7505 1.04727C45.1537 1.04727 44.6674 1.52 44.6674 2.09454V4.00727H39.2589V2.09454C39.2589 1.51273 38.7726 1.04727 38.1758 1.04727C37.5789 1.04727 37.0926 1.52 37.0926 2.09454V4.00727H31.6842V2.09454C31.6842 1.51273 31.1979 1.04727 30.601 1.04727C30.0042 1.04727 29.5179 1.52 29.5179 2.09454V4.00727H24.1095V2.09454C24.1095 1.51273 23.6231 1.04727 23.0263 1.04727C22.4295 1.04727 21.9431 1.52 21.9431 2.09454V4.00727H13.8526C13.2558 4.00727 12.7695 4.48 12.7695 5.05454V49.8036H2.89578C2.29894 49.8036 1.81262 50.2764 1.81262 50.8509V57.1636C1.81262 63.2945 6.97789 68.2836 13.3221 68.2836H52.0726C58.4242 68.2836 63.5821 63.2945 63.5821 57.1636V5.05454C63.5821 4.47273 63.0958 4.00727 62.4989 4.00727ZM13.3221 66.1891C8.17157 66.1891 3.97894 62.1382 3.97894 57.1636V51.8982H40.5631V57.1636C40.5631 60.1236 41.7568 62.9164 43.9379 65.0255C44.38 65.4473 44.8516 65.84 45.3453 66.1818H13.3221V66.1891ZM61.4158 57.1636C61.4158 62.1382 57.2231 66.1891 52.0726 66.1891C49.5821 66.1891 47.2389 65.2509 45.4779 63.5491C43.7095 61.84 42.7368 59.5709 42.7368 57.1636V50.8509C42.7368 50.2691 42.2505 49.8036 41.6537 49.8036H14.9137V6.10909H21.921V7.49818C21.921 8.08 22.4074 8.54545 23.0042 8.54545C23.601 8.54545 24.0874 8.07273 24.0874 7.49818V6.10909H29.4958V7.49818C29.4958 8.08 29.9821 8.54545 30.5789 8.54545C31.1758 8.54545 31.6621 8.07273 31.6621 7.49818V6.10909H37.0705V7.49818C37.0705 8.08 37.5568 8.54545 38.1537 8.54545C38.7505 8.54545 39.2368 8.07273 39.2368 7.49818V6.10909H44.6453V7.49818C44.6453 8.08 45.1316 8.54545 45.7284 8.54545C46.3253 8.54545 46.8116 8.07273 46.8116 7.49818V6.10909H52.22V7.49818C52.22 8.08 52.7063 8.54545 53.3031 8.54545C53.9 8.54545 54.3863 8.07273 54.3863 7.49818V6.10909H61.3937V57.1709L61.4158 57.1636Z" fill="#372A84"/>
</g>
<defs>
<clipPath id="clip0_49_2">
<rect width="70" height="80" fill="white"/>
</clipPath>
</defs>
</svg>
