<svg width="65" height="413" viewBox="0 0 65 413" fill="none" xmlns="http://www.w3.org/2000/svg">
<g clip-path="url(#clip0_29_1347)">
<path d="M63.8345 413H1.16577V375.856H12.4469V400.316H26.5039V376.306H37.4294V400.316H52.5632V375.676H63.8443V413H63.8345Z" fill="#FABA0E"/>
<path d="M63.8345 367.62H1.16577V344.97C1.16577 337.663 2.53887 331.606 5.28507 326.808C8.03127 322.01 11.7653 318.411 16.4773 316.022C21.1893 313.633 26.5632 312.444 32.589 312.444C38.6149 312.444 43.8998 313.633 48.6118 316.022C53.3238 318.411 57.0381 322 59.7547 326.808C62.4712 331.606 63.8246 337.663 63.8246 344.97V367.62H63.8345ZM12.4469 346.509V354.935H52.5533V346.509C52.5533 341.501 51.6741 337.453 49.9158 334.374C48.1574 331.296 45.7668 329.057 42.7539 327.667C39.741 326.278 36.3527 325.588 32.589 325.588C28.8253 325.588 25.3481 326.288 22.3352 327.667C19.3223 329.057 16.9219 331.296 15.124 334.374C13.3261 337.453 12.437 341.501 12.437 346.509H12.4469Z" fill="#FABA0E"/>
<path d="M63.8345 305.657H1.16577V292.972H63.8345V305.657Z" fill="#FABA0E"/>
<path d="M63.8345 268.963H12.4469V287.085H1.16577V238.166H12.4469V256.288H63.8345V268.973V268.963Z" fill="#FABA0E"/>
<path d="M64.9999 206.91C64.9999 211.618 64.1602 215.986 62.4908 220.004C60.8213 224.022 58.49 227.521 55.5067 230.51C52.5234 233.498 49.0759 235.827 45.164 237.487C41.2522 239.146 37.0637 239.975 32.5888 239.975C28.1139 239.975 23.9057 239.146 19.9642 237.487C16.0227 235.827 12.5652 233.498 9.58195 230.51C6.59867 227.521 4.25749 224.022 2.5584 220.004C0.85931 215.986 0.00976562 211.628 0.00976562 206.91C0.00976562 202.192 0.85931 197.854 2.5584 193.866C4.25749 189.877 6.59867 186.409 9.58195 183.45C12.5652 180.491 16.0326 178.182 19.9642 176.523C23.9057 174.864 28.1139 174.034 32.5888 174.034C37.0637 174.034 41.262 174.864 45.164 176.523C49.0759 178.182 52.5234 180.491 55.5067 183.45C58.49 186.409 60.8213 189.877 62.4908 193.866C64.1602 197.854 64.9999 202.202 64.9999 206.91ZM53.3631 206.91C53.3631 202.802 52.4247 199.283 50.5478 196.354C48.6709 193.426 46.142 191.157 42.9809 189.557C39.8198 187.958 36.3525 187.158 32.5987 187.158C28.8449 187.158 25.2886 187.958 22.1275 189.557C18.9665 191.157 16.4277 193.426 14.5212 196.354C12.6146 199.283 11.6564 202.802 11.6564 206.91C11.6564 211.018 12.6146 214.567 14.5212 217.555C16.4277 220.544 18.9665 222.843 22.1275 224.442C25.2886 226.042 28.7856 226.841 32.5987 226.841C36.4117 226.841 39.8198 226.042 42.9809 224.442C46.142 222.843 48.6709 220.544 50.5478 217.555C52.4247 214.567 53.3631 211.018 53.3631 206.91Z" fill="#FABA0E"/>
<path d="M63.8345 167.227H1.16577V146.756C1.16577 139.629 2.79571 134.032 6.04571 129.953C9.29571 125.875 13.9978 123.836 20.1422 123.836C25.1012 123.836 29.0921 125.185 32.1346 127.864C35.1772 130.553 37.2121 134.281 38.2197 139.049L63.8246 121.297V136.241L43.9492 149.735C42.6946 150.584 41.1734 151.394 39.3854 152.184V154.543H63.8246V167.227H63.8345ZM28.1141 154.543V147.476C28.1141 144.037 27.4424 141.378 26.0989 139.499C24.7554 137.63 22.7995 136.69 20.2311 136.69C17.6627 136.69 15.7957 137.63 14.4522 139.499C13.1088 141.368 12.437 144.027 12.437 147.476V154.543H28.1042H28.1141Z" fill="#FABA0E"/>
<path d="M63.8345 117.319H1.16577V104.634H63.8345V117.319Z" fill="#FABA0E"/>
<path d="M63.8345 101.826L1.16577 75.9169V64.9517L63.8345 39.1329V52.9069L51.931 57.255V83.7035L63.8345 88.0516V101.826ZM23.9948 72.7483L41.0943 79.5453V61.4232L23.9948 68.2203C21.6042 69.1299 19.2235 69.8795 16.8329 70.4893C19.4013 71.089 21.7919 71.8487 23.9948 72.7583V72.7483Z" fill="#FABA0E"/>
<path d="M63.8345 36.3242H1.16577V23.6397H52.5533V0H63.8345V36.3242Z" fill="#FABA0E"/>
</g>
<defs>
<clipPath id="clip0_29_1347">
<rect width="65" height="413" fill="white"/>
</clipPath>
</defs>
</svg>
