<svg width="60" height="60" viewBox="0 0 60 60" fill="none" xmlns="http://www.w3.org/2000/svg">
<g clip-path="url(#clip0_31_1381)">
<path d="M30 60C46.5685 60 60 46.5685 60 30C60 13.4315 46.5685 0 30 0C13.4315 0 0 13.4315 0 30C0 46.5685 13.4315 60 30 60Z" fill="white"/>
<path d="M18.7401 33C17.7501 32.01 17.7501 30.48 18.7401 29.6L27.1901 21.48C29.4901 19.18 33.0001 22.69 30.7001 24.99L27.8501 27.84C27.1901 28.5 27.4101 29.05 28.2901 29.05H39.5901C40.9101 29.05 42.0001 30.15 42.0001 31.46C42.0001 32.77 40.9001 33.87 39.5901 33.87H28.2901C27.4101 33.87 27.1901 34.42 27.8501 35.08L30.7001 37.93C33.0001 40.23 29.4901 43.74 27.1901 41.44L18.7401 32.99V33Z" fill="#372A84"/>
</g>
<defs>
<clipPath id="clip0_31_1381">
<rect width="60" height="60" fill="white"/>
</clipPath>
</defs>
</svg>
