<svg width="60" height="60" viewBox="0 0 60 60" fill="none" xmlns="http://www.w3.org/2000/svg">
<g clip-path="url(#clip0_31_1377)">
<path d="M30 60C46.5685 60 60 46.5685 60 30C60 13.4315 46.5685 0 30 0C13.4315 0 0 13.4315 0 30C0 46.5685 13.4315 60 30 60Z" fill="white"/>
<path d="M41.26 31.54C42.25 30.55 42.25 29.02 41.26 28.14L32.81 20.02C30.51 17.72 27 21.23 29.3 23.53L32.15 26.38C32.81 27.04 32.59 27.59 31.71 27.59H20.41C19.09 27.59 18 28.69 18 30C18 31.31 19.1 32.41 20.41 32.41H31.71C32.59 32.41 32.81 32.96 32.15 33.62L29.3 36.47C27 38.77 30.51 42.28 32.81 39.98L41.26 31.53V31.54Z" fill="#372A84"/>
</g>
<defs>
<clipPath id="clip0_31_1377">
<rect width="60" height="60" fill="white"/>
</clipPath>
</defs>
</svg>
