<svg width="90" height="80" viewBox="0 0 90 80" fill="none" xmlns="http://www.w3.org/2000/svg">
<g clip-path="url(#clip0_31_1385)">
<path d="M39.59 0H90V80H39.59C17.74 80 0 62.26 0 40.41V39.59C0 17.74 17.74 0 39.59 0Z" fill="#F7B713"/>
<path d="M25.5 27.27C25.5 25.76 26.72 24.54 28.23 24.54H66.78C68.29 24.54 69.51 25.76 69.51 27.27C69.51 28.78 68.29 30 66.78 30H28.23C26.72 30 25.5 28.78 25.5 27.27ZM66.77 37.27H28.23C26.72 37.27 25.5 38.49 25.5 40C25.5 41.51 26.72 42.73 28.23 42.73H66.78C68.29 42.73 69.51 41.51 69.51 40C69.51 38.49 68.29 37.27 66.78 37.27H66.77ZM58.59 50H28.23C26.72 50 25.5 51.22 25.5 52.73C25.5 54.24 26.72 55.46 28.23 55.46H58.59C60.1 55.46 61.32 54.24 61.32 52.73C61.32 51.22 60.1 50 58.59 50Z" fill="white"/>
</g>
<defs>
<clipPath id="clip0_31_1385">
<rect width="90" height="80" fill="white"/>
</clipPath>
</defs>
</svg>
