<svg width="90" height="80" viewBox="0 0 90 80" fill="none" xmlns="http://www.w3.org/2000/svg">
<g clip-path="url(#clip0_30_1371)">
<path d="M50.41 80L0 80L0 0L50.41 0C72.26 0 90 17.74 90 39.59V40.41C90 62.26 72.26 80 50.41 80Z" fill="#00C4EE"/>
<path d="M29.96 15.96L50.23 15.99C51.11 15.99 51.77 16.66 51.77 17.55C51.77 24.78 51.75 26.47 51.74 32.52C51.69 33.31 52.2499 33.88 52.7299 34.38L56.88 38.66C57.43 39.36 56.37 40.18 55.83 39.48C52.59 36.23 51.7 35.54 48.69 33.19C45.68 30.85 43.68 31.25 42.58 32.45C41.48 33.64 41.24 35.78 42.98 37.81L46.8 42.31C47.91 43.6 48.79 44.83 48.86 46C48.93 47.17 48.61 48.24 48.27 49.31C47.59 51.44 46.35 53.55 47.23 56.83C47.62 57.71 46.5 58.2 46.25 57.27C46.04 56.67 45.92 56.11 45.82 55.57C45.6 54.31 45.62 53.11 45.96 52.17C46.28 51.3 45.75 50.63 44.71 50.63L29.89 50.61C28.78 50.61 28.36 49.96 28.36 48.77L28.39 17.52C28.39 16.63 29.06 15.97 29.94 15.97L29.96 15.96ZM29.96 11.48C27.65 11.48 25.75 13.38 25.75 15.7V20C25.38 20.07 25.01 20.22 24.66 20.45C23.73 21.05 23.11 22.13 23.05 23.23C22.99 24.34 23.48 25.27 24.29 25.74L25.74 26.58V27.42L24.92 26.95C23.92 26.38 22.97 26.65 22.12 27.12C21.15 27.65 20.57 28.8 20.51 29.91C20.45 31.02 20.94 31.95 21.75 32.42L25.72 34.72V35.53C25.44 35.6 25.16 35.7 24.89 35.88C24.09 36.41 23.55 37.36 23.49 38.31C23.43 39.27 23.83 40.05 24.5 40.44L25.72 41.14V53.17C25.7 55.48 27.6 57.39 29.91 57.39L39.9 57.41L41.84 60.41C42.33 61.16 43.15 61.74 44.4 61.28L59.52 55.6C61.73 54.77 61.13 53 61.18 51.45L61.57 39.19C61.63 37.47 61.1599 36.05 60.2299 34.68L54.4 28.02L54.4199 15.72C54.4199 13.41 52.53 11.51 50.22 11.51L29.95 11.48H29.96Z" fill="white"/>
<path d="M63.22 57C64.03 59.15 63.96 60.39 63.34 61.34C62.72 62.28 61.36 63.06 59.28 63.84L51.15 66.9C49.08 67.68 47.54 68 46.44 67.69C45.35 67.38 44.51 66.48 43.68 64.33C43.45 63.75 43.25 63.13 44.42 62.69L61.32 56.34C62.72 55.81 63.01 56.46 63.21 56.99L63.22 57Z" fill="white"/>
</g>
<defs>
<clipPath id="clip0_30_1371">
<rect width="90" height="80" fill="white"/>
</clipPath>
</defs>
</svg>
