<?xml version="1.0" encoding="UTF-8"?><svg id="Layer_2" xmlns="http://www.w3.org/2000/svg" viewBox="0 0 45 45"><defs><style>.cls-1{fill:#fff;fill-rule:evenodd;}.cls-1,.cls-2{stroke-width:0px;}.cls-2{fill:#1d1d1b;}</style></defs><g id="Camada_1"><circle class="cls-2" cx="22.5" cy="22.5" r="22.5"/><path class="cls-1" d="m30.76,17.36c.9-.85.95-2.26.1-3.16-.85-.9-2.26-.95-3.16-.1h0s-.07.07-.1.1l-5.12,5.13-5.12-5.12c-.84-.9-2.26-.95-3.16-.1-.9.84-.95,2.26-.1,3.16.03.04.07.07.1.1l5.13,5.12-5.12,5.12c-.88.86-.9,2.28-.04,3.16.84.86,2.2.9,3.09.1l.1-.1,5.12-5.12,5.12,5.12c.83.91,2.25.97,3.16.14.9-.82.97-2.21.17-3.12-.02-.02-.05-.05-.07-.07s-.07-.07-.1-.1l-5.12-5.12,5.12-5.12Z"/></g></svg>