<svg width="24" height="22" viewBox="0 0 24 22" fill="none" xmlns="http://www.w3.org/2000/svg">
<g clip-path="url(#clip0_50_33)">
<path d="M23.2764 12.6032C24.2412 11.6166 24.2412 10.0134 23.2764 9.15018L14.8342 0.764355C12.5427 -1.57874 8.92462 1.99756 11.3367 4.34066L14.2312 7.30037C14.8342 7.91697 14.7136 8.53358 13.7487 8.53358H2.41206C1.08543 8.53358 8.65376e-07 9.64347 8.65376e-07 11C8.65376e-07 12.3565 1.08543 13.4664 2.41206 13.4664H13.7487C14.593 13.4664 14.8342 14.083 14.2312 14.6996L11.3367 17.6593C9.04523 20.0024 12.5427 23.5787 14.8342 21.2356L23.2764 12.6032Z" fill="white"/>
</g>
<defs>
<clipPath id="clip0_50_33">
<rect width="24" height="22" fill="white"/>
</clipPath>
</defs>
</svg>
