<svg width="90" height="80" viewBox="0 0 90 80" fill="none" xmlns="http://www.w3.org/2000/svg">
<g clip-path="url(#clip0_30_1358)">
<path d="M50.41 80L0 80L0 0L50.41 0C72.26 0 90 17.74 90 39.59V40.41C90 62.26 72.26 80 50.41 80Z" fill="#E42170"/>
<path d="M63.21 53.77H54.55C54.04 53.77 53.66 54.15 53.66 54.66C53.66 55.17 54.04 55.55 54.55 55.55H63.21C63.72 55.55 64.1 55.17 64.1 54.66C64.1 54.15 63.72 53.77 63.21 53.77Z" fill="white"/>
<path d="M53.15 23H58.05C58.56 23 58.94 22.62 58.94 22.11C58.94 21.6 58.56 21.22 58.05 21.22H53.15C52.64 21.22 52.26 21.6 52.26 22.11C52.32 22.56 52.71 23 53.15 23Z" fill="white"/>
<path d="M63.21 43.62H54.55C54.04 43.62 53.66 44 53.66 44.51C53.66 45.02 54.04 45.4 54.55 45.4H63.21C63.72 45.4 64.1 45.02 64.1 44.51C64.1 44.06 63.72 43.62 63.21 43.62Z" fill="white"/>
<path d="M63.21 48.7H54.55C54.04 48.7 53.66 49.08 53.66 49.59C53.66 50.1 54.04 50.48 54.55 50.48H63.21C63.72 50.48 64.1 50.1 64.1 49.59C64.1 49.08 63.72 48.7 63.21 48.7Z" fill="white"/>
<path d="M52.3199 29.41C52.3199 29.92 52.6999 30.3 53.2099 30.3H65.9499C66.4599 30.3 66.8399 29.92 66.8399 29.41C66.8399 28.9 66.4599 28.52 65.9499 28.52H53.2099C52.6999 28.52 52.3199 28.9 52.3199 29.41Z" fill="white"/>
<path d="M65.9499 33.53H53.2099C52.6999 33.53 52.3199 33.91 52.3199 34.42C52.3199 34.93 52.6999 35.31 53.2099 35.31H65.9499C66.4599 35.31 66.8399 34.93 66.8399 34.42C66.7799 33.97 66.3899 33.53 65.9499 33.53Z" fill="white"/>
<path d="M54.55 40.32H59.64C60.15 40.32 60.53 39.94 60.53 39.43C60.53 38.92 60.15 38.54 59.64 38.54H54.55C54.04 38.54 53.66 38.92 53.66 39.43C53.66 39.94 54.04 40.32 54.55 40.32Z" fill="white"/>
<path d="M70.66 21.17L63.34 13.87C63.15 13.68 62.89 13.62 62.64 13.62C54.49 13.62 46.27 13.62 38.12 13.56H34.94C34.43 13.56 34.05 13.94 34.05 14.45V26.19C26.22 26.64 19.98 33.17 19.98 41.11C19.98 49.05 26.16 55.57 34.05 56.08V63.63C34.05 64.14 34.43 64.52 34.94 64.52H70.03C70.54 64.52 70.92 64.14 70.92 63.63V21.8C70.92 21.55 70.79 21.35 70.67 21.16L70.66 21.17ZM25.95 50.79C20.47 45.65 20.28 37.02 25.63 31.69C30.79 26.55 39.26 26.55 44.42 31.69C49.77 37.02 49.58 45.65 44.1 50.79C38.88 46.22 31.11 46.22 25.95 50.79ZM69.13 62.72H35.82V56.06H35.95C43.91 55.55 50.02 49.02 50.02 41.09C50.02 33.16 43.78 26.56 35.82 26.12V15.33L61.8 15.39V21.8C61.8 22.31 62.18 22.69 62.69 22.69H69.12V62.72H69.13Z" fill="white"/>
<path d="M30.9201 35.88C28.6901 38.1 28.6901 41.72 30.9201 43.94C33.1501 46.16 36.7801 46.16 39.0101 43.94C41.2401 41.72 41.2401 38.1 39.0101 35.88C36.8401 33.66 33.2101 33.66 30.9201 35.88Z" fill="white"/>
</g>
<defs>
<clipPath id="clip0_30_1358">
<rect width="90" height="80" fill="white"/>
</clipPath>
</defs>
</svg>
