<svg width="50" height="45" viewBox="0 0 50 45" fill="none" xmlns="http://www.w3.org/2000/svg">
<g clip-path="url(#clip0_26_1311)">
<path d="M48.46 25.72C50.52 23.65 50.52 20.43 48.46 18.59L30.86 1.58001C26.06 -3.24999 18.75 4.11001 23.55 8.94001L29.49 14.92C30.86 16.3 30.4 17.45 28.58 17.45H5.03C2.29 17.45 0 19.75 0 22.51C0 25.27 2.29 27.57 5.03 27.57H28.57C30.4 27.57 30.86 28.72 29.48 30.1L23.54 36.08C18.74 40.91 26.05 48.27 30.85 43.44L48.45 25.74L48.46 25.72Z" fill="white"/>
</g>
<defs>
<clipPath id="clip0_26_1311">
<rect width="50" height="45" fill="white"/>
</clipPath>
</defs>
</svg>
