<svg width="68" height="68" viewBox="0 0 68 68" fill="none" xmlns="http://www.w3.org/2000/svg">
<g clip-path="url(#clip0_18_72)">
<path d="M61.97 22.41C63.3 18.7 62.48 14.4 59.53 11.44L56.56 8.47001C54.58 6.49001 51.95 5.40001 49.15 5.40001C47.92 5.40001 46.72 5.61001 45.59 6.02001C43.91 2.46001 40.29 -0.00999451 36.11 -0.00999451H31.91C27.72 -0.00999451 24.1 2.46001 22.42 6.02001C21.29 5.61001 20.09 5.40001 18.86 5.40001C16.06 5.40001 13.42 6.49001 11.45 8.48001L8.49001 11.44C6.51001 13.42 5.42001 16.05 5.42001 18.85C5.42001 20.08 5.63001 21.28 6.04001 22.41C2.48001 24.09 0.0100098 27.71 0.0100098 31.9V36.09C0.0100098 40.28 2.48001 43.9 6.04001 45.58C5.63001 46.71 5.42001 47.91 5.42001 49.14C5.42001 51.94 6.51001 54.57 8.49001 56.55L11.45 59.51C13.43 61.49 16.06 62.58 18.87 62.58C20.1 62.58 21.3 62.37 22.43 61.96C24.11 65.52 27.73 67.99 31.92 67.99H36.12C40.31 67.99 43.93 65.52 45.6 61.96C46.73 62.36 47.93 62.58 49.16 62.58C51.96 62.58 54.59 61.49 56.57 59.51L59.53 56.55C62.49 53.59 63.31 49.29 61.98 45.58C65.54 43.9 68.01 40.28 68.01 36.09V31.89C68.01 27.7 65.54 24.08 61.98 22.4L61.97 22.41ZM34 48.63C25.93 48.63 19.37 42.07 19.37 34C19.37 25.93 25.93 19.36 34 19.36C42.07 19.36 48.63 25.93 48.63 34C48.63 42.07 42.07 48.63 34 48.63Z" fill="white"/>
<path d="M54.21 41.12C54.33 40.77 54.75 40.48 54.94 40.48H57.51C59.92 40.48 61.88 38.52 61.88 36.11V31.91C61.88 29.5 59.92 27.54 57.51 27.54H54.94C54.74 27.54 54.33 27.24 54.21 26.9C53.95 26.17 53.65 25.44 53.31 24.75C53.15 24.42 53.24 23.93 53.37 23.79L55.2 21.97C56.9 20.26 56.9 17.49 55.2 15.78L52.23 12.81C51.4 11.98 50.31 11.53 49.14 11.53C47.97 11.53 46.87 11.99 46.05 12.82L44.23 14.64C44.17 14.7 43.98 14.79 43.69 14.79C43.53 14.79 43.38 14.76 43.26 14.7C42.56 14.36 41.84 14.06 41.11 13.8C40.76 13.67 40.47 13.26 40.47 13.07V10.5C40.47 8.08 38.51 6.12 36.1 6.12H31.9C29.49 6.12 27.52 8.08 27.52 10.5V13.07C27.52 13.26 27.22 13.67 26.88 13.8C26.15 14.06 25.43 14.36 24.73 14.7C24.62 14.76 24.46 14.79 24.31 14.79C24.03 14.79 23.83 14.7 23.78 14.64L21.95 12.82C21.12 11.99 20.03 11.53 18.86 11.53C17.69 11.53 16.59 11.99 15.77 12.82L12.81 15.78C11.1 17.48 11.1 20.26 12.81 21.97L14.63 23.79C14.77 23.93 14.85 24.42 14.69 24.75C14.35 25.45 14.05 26.18 13.79 26.9C13.67 27.25 13.25 27.54 13.06 27.54H10.49C8.07998 27.54 6.10999 29.5 6.10999 31.91V36.1C6.10999 38.51 8.06998 40.47 10.49 40.47H13.06C13.26 40.47 13.67 40.77 13.8 41.11C14.06 41.84 14.36 42.56 14.7 43.26C14.86 43.59 14.78 44.08 14.64 44.22L12.82 46.04C11.99 46.87 11.54 47.97 11.54 49.13C11.54 50.29 12 51.4 12.82 52.22L15.78 55.18C16.61 56.01 17.71 56.46 18.87 56.46C20.03 56.46 21.14 56.01 21.96 55.18L23.79 53.35C23.85 53.29 24.04 53.21 24.32 53.21C24.48 53.21 24.63 53.24 24.74 53.29C25.44 53.63 26.16 53.93 26.89 54.18C27.24 54.31 27.53 54.72 27.53 54.92V57.49C27.53 59.9 29.49 61.87 31.91 61.87H36.11C38.52 61.87 40.48 59.91 40.48 57.49V54.92C40.48 54.73 40.78 54.31 41.12 54.18C41.85 53.93 42.57 53.63 43.27 53.29C43.38 53.24 43.54 53.21 43.7 53.21C43.98 53.21 44.18 53.3 44.24 53.36L46.07 55.19C46.89 56.02 47.99 56.46 49.16 56.46C50.33 56.46 51.42 56.01 52.25 55.19L55.22 52.22C56.92 50.52 56.92 47.74 55.22 46.03L53.39 44.21C53.25 44.07 53.17 43.58 53.33 43.25C53.67 42.54 53.97 41.82 54.23 41.1M42.52 34C42.52 38.7 38.7 42.52 34 42.52C29.3 42.52 25.48 38.7 25.48 34C25.48 29.3 29.3 25.47 34 25.47C38.7 25.47 42.52 29.29 42.52 34Z" fill="#00C4EE"/>
</g>
<defs>
<clipPath id="clip0_18_72">
<rect width="68" height="68" fill="white"/>
</clipPath>
</defs>
</svg>
