<svg width="150" height="105" viewBox="0 0 150 105" fill="none" xmlns="http://www.w3.org/2000/svg">
<g clip-path="url(#clip0_18_59)">
<path d="M149.24 90.94C149.06 90.45 148.79 89.99 148.42 89.59L131.05 70.9C131.05 70.9 131.05 70.89 131.05 70.88V15.36C131.05 6.89 124.29 0 115.97 0H34.03C25.72 0 18.95 6.89 18.95 15.36V70.89C18.95 70.89 18.95 70.9 18.95 70.91L1.58 89.59C1.21 89.99 0.94 90.45 0.76 90.94C0.28 91.63 0 92.48 0 93.39V95.61C0 100.79 4.14 105 9.22 105H140.78C145.86 105 150 100.79 150 95.61V93.39C150 92.48 149.72 91.64 149.24 90.94Z" fill="white"/>
<path d="M116.62 3.60001H33.38C27.36 3.60001 22.49 8.57001 22.49 14.69V71.54C22.49 72 22.86 72.38 23.31 72.38H126.69C127.14 72.38 127.51 72.01 127.51 71.54V14.7C127.51 8.57001 122.63 3.61001 116.62 3.61001V3.60001ZM119.25 63.46C119.25 63.92 118.88 64.3 118.43 64.3H31.57C31.12 64.3 30.75 63.93 30.75 63.46V12.52C30.75 12.06 31.12 11.69 31.57 11.69H118.44C118.89 11.69 119.26 12.06 119.26 12.52V63.46H119.25Z" fill="#372A84"/>
<path d="M146.46 92.73H3.54004L22.89 71.91H127.11L146.46 92.73Z" fill="#F7B713"/>
<path d="M90.77 87.72H20.93C19.17 87.72 18.41 86.87 19.22 85.85L26.88 76.23C27.47 75.49 29.11 74.91 30.56 74.91H87.96C89.41 74.91 90.74 75.5 90.93 76.23L93.47 85.85C93.74 86.87 92.53 87.72 90.77 87.72Z" fill="#E5571C"/>
<path d="M105.76 87.72H129.07C130.83 87.72 131.58 86.87 130.77 85.85L123.11 76.23C122.52 75.49 120.88 74.91 119.43 74.91H100.27C98.82 74.91 97.87 75.5 98.15 76.23L101.84 85.85C102.23 86.87 103.98 87.72 105.75 87.72" fill="#E5571C"/>
<path d="M141.43 101.4H8.57004C5.79004 101.4 3.54004 99.1 3.54004 96.27V92.73H146.46V96.27C146.46 99.1 144.21 101.4 141.43 101.4Z" fill="#372A84"/>
</g>
<defs>
<clipPath id="clip0_18_59">
<rect width="150" height="105" fill="white"/>
</clipPath>
</defs>
</svg>
