<svg width="120" height="120" viewBox="0 0 120 120" fill="none" xmlns="http://www.w3.org/2000/svg">
<g clip-path="url(#clip0_18_76)">
<path d="M107.26 43.05H103.84C103.57 42.35 103.28 41.66 102.98 40.98L105.4 38.56C107.81 36.16 109.13 32.96 109.13 29.55C109.13 26.14 107.81 22.95 105.4 20.54L99.44 14.59C97.04 12.19 93.84 10.86 90.44 10.86C87.04 10.86 83.84 12.18 81.43 14.59L79.01 17.01C78.32 16.7 77.63 16.41 76.94 16.14V12.72C76.94 5.70001 71.23 -0.00999451 64.21 -0.00999451H55.78C48.76 -0.00999451 43.04 5.70001 43.04 12.72V16.14C42.35 16.41 41.66 16.7 40.97 17L38.55 14.58C36.14 12.17 32.95 10.85 29.55 10.85C26.15 10.85 22.95 12.18 20.54 14.58L14.58 20.54C12.18 22.94 10.85 26.14 10.85 29.55C10.85 32.94 12.17 36.14 14.58 38.55L17.01 40.98C16.7 41.67 16.41 42.36 16.15 43.04H12.73C5.71 43.04 0 48.75 0 55.77V64.2C0 71.22 5.71 76.93 12.73 76.93H16.15C16.42 77.62 16.71 78.3 17.01 78.99L14.58 81.42C9.63 86.38 9.63 94.46 14.58 99.43L20.55 105.4C22.96 107.8 26.16 109.13 29.55 109.13C32.94 109.13 36.15 107.8 38.55 105.4L40.97 102.98C41.65 103.28 42.34 103.57 43.03 103.84V107.26C43.03 114.28 48.74 119.99 55.77 119.99H64.2C71.22 119.99 76.94 114.28 76.94 107.26V103.84C77.63 103.57 78.32 103.28 79.01 102.98L81.43 105.4C83.84 107.81 87.04 109.13 90.44 109.13C93.84 109.13 97.03 107.8 99.44 105.4L105.4 99.43C110.36 94.47 110.36 86.39 105.4 81.42L102.98 79C103.29 78.32 103.57 77.62 103.84 76.93H107.26C114.28 76.93 119.99 71.22 119.99 64.2V55.77C119.99 48.75 114.27 43.04 107.25 43.04L107.26 43.05ZM60 85.47C45.96 85.47 34.53 74.04 34.53 60C34.53 45.96 45.95 34.54 60 34.54C74.05 34.54 85.46 45.96 85.46 60C85.46 74.04 74.04 85.47 60 85.47Z" fill="white"/>
<path d="M107.26 49.19H102.1C100.7 49.19 99.08 47.92 98.55 46.43C98.06 45.04 97.48 43.67 96.83 42.33C96.14 40.91 96.4 38.88 97.38 37.89L101.05 34.22C103.62 31.65 103.62 27.46 101.05 24.89L95.09 18.93C93.84 17.68 92.19 17 90.43 17C88.67 17 87.01 17.68 85.76 18.93L82.09 22.6C81.5 23.19 80.52 23.54 79.46 23.54C78.8 23.54 78.18 23.41 77.65 23.15C76.32 22.51 74.94 21.92 73.55 21.43C72.05 20.9 70.79 19.27 70.79 17.88V12.72C70.79 9.08 67.83 6.13 64.19 6.13H55.76C52.12 6.13 49.16 9.09 49.16 12.72V17.88C49.16 19.27 47.9 20.9 46.4 21.43C45.01 21.92 43.63 22.5 42.3 23.14C41.78 23.39 41.14 23.53 40.49 23.53C39.43 23.53 38.45 23.18 37.86 22.58L34.2 18.92C32.95 17.67 31.3 16.99 29.54 16.99C27.78 16.99 26.12 17.68 24.87 18.92L18.91 24.88C17.66 26.13 16.98 27.78 16.98 29.54C16.98 31.3 17.67 32.95 18.91 34.2L22.58 37.87C23.57 38.86 23.82 40.89 23.14 42.31C22.49 43.65 21.91 45.02 21.43 46.41C20.9 47.9 19.27 49.17 17.87 49.17H12.71C9.07 49.17 6.12 52.13 6.12 55.76V64.19C6.12 67.83 9.08 70.78 12.71 70.78H17.87C19.27 70.78 20.89 72.04 21.43 73.53C21.92 74.91 22.5 76.29 23.14 77.63C23.83 79.05 23.57 81.08 22.58 82.07L18.91 85.74C16.34 88.31 16.34 92.5 18.91 95.07L24.88 101.04C26.13 102.29 27.78 102.97 29.55 102.97C31.32 102.97 32.97 102.28 34.21 101.04L37.88 97.37C38.47 96.78 39.45 96.43 40.51 96.43C41.17 96.43 41.79 96.56 42.32 96.82C43.65 97.46 45.04 98.04 46.42 98.53C47.91 99.06 49.18 100.69 49.18 102.08V107.24C49.18 110.88 52.14 113.83 55.78 113.83H64.21C67.85 113.83 70.81 110.87 70.81 107.24V102.08C70.81 100.68 72.07 99.06 73.56 98.53C74.95 98.04 76.33 97.46 77.66 96.82C78.17 96.57 78.82 96.43 79.46 96.43C80.52 96.43 81.51 96.78 82.1 97.37L85.77 101.04C87.02 102.29 88.67 102.97 90.44 102.97C92.21 102.97 93.85 102.28 95.1 101.04L101.06 95.07C103.63 92.5 103.63 88.31 101.06 85.74L97.39 82.07C96.4 81.08 96.15 79.05 96.84 77.63C97.49 76.3 98.06 74.92 98.55 73.53C99.08 72.04 100.71 70.78 102.11 70.78H107.27C110.91 70.78 113.86 67.82 113.86 64.19V55.76C113.86 52.12 110.9 49.16 107.26 49.16M79.33 60C79.33 70.66 70.66 79.33 60 79.33C49.34 79.33 40.67 70.65 40.67 60C40.67 49.35 49.34 40.67 60 40.67C70.66 40.67 79.33 49.34 79.33 60Z" fill="#4C79BA"/>
</g>
<defs>
<clipPath id="clip0_18_76">
<rect width="120" height="120" fill="white"/>
</clipPath>
</defs>
</svg>
