<svg width="140" height="70" viewBox="0 0 140 70" fill="none" xmlns="http://www.w3.org/2000/svg">
<g clip-path="url(#clip0_18_41)">
<path d="M139.837 12.5689C139.759 12.18 139.619 11.7444 139.378 11.2778L139.129 10.8111L138.787 10.4144C137.962 9.43445 136.578 8.25222 134.727 8.14334L7.35788 0.00777946C4.23121 -0.155554 1.43121 1.78889 0.373433 4.87667C-0.645456 7.94111 0.482322 11.3556 3.13454 13.1911L24.5623 27.8911L30.7923 64.6489C30.8779 65.1467 31.0412 65.6367 31.259 66.0956C31.8268 67.3011 32.6279 68.0322 33.2657 68.4522C33.7945 68.81 34.3779 69.0667 35.0157 69.2222C35.9879 69.4711 37.0223 69.4322 38.0101 69.1211L69.899 58.9944L83.6112 68.3978C84.5601 69.0667 85.6256 69.5333 86.8234 69.7978C87.4534 69.93 88.0834 70 88.6979 70C91.2334 70 93.6368 68.9111 95.3557 66.92L138.468 17.92C139.409 16.9011 139.961 15.5322 139.992 14.0933C140.008 13.8367 140.016 13.2689 139.837 12.5689Z" fill="white"/>
<path d="M128.232 15.3689L54.5377 40.7711L54.4988 40.8256L54.351 40.88C54.2654 40.9345 54.1799 40.9889 54.1488 41.0511L53.2232 42.1245L36.9443 61.2889L30.8699 25.3789L33.2188 25.1378L128.232 15.3689Z" fill="#B64923"/>
<path d="M129.282 13.9689L29.9522 23.3878L29.8899 23.3489L6.77439 7.49001C6.58772 7.34223 6.62661 7.16334 6.65773 7.07001C6.6655 7.00001 6.7355 6.86001 6.9455 6.85223L129.282 13.9689Z" fill="#E8571B"/>
<path d="M68.4831 52.3056L39.3865 61.5145L55.0587 43.0889L68.4831 52.3056Z" fill="#E8571B"/>
<path d="M131.055 16.1778L90.4554 62.3233C89.9732 62.8522 89.3354 63.1478 88.6976 63.1556C88.2154 63.1633 87.7254 63.0233 87.3132 62.7433L57.1432 42.0389L57.571 41.8833L131.063 16.17L131.055 16.1778Z" fill="#E8571B"/>
<path d="M29.9521 23.3878L129.282 13.9689L6.94545 6.84445C6.74323 6.85223 6.67323 6.99223 6.65768 7.06223C6.61879 7.15556 6.58768 7.33445 6.77434 7.48223L29.8899 23.3411L29.9521 23.38V23.3878ZM70.6221 53.7678L36.6332 64.5633C36.4621 64.6178 36.2677 64.6333 36.0888 64.5945C35.9877 64.5633 35.8788 64.5322 35.7699 64.4545C35.6066 64.3533 35.4977 64.1978 35.3966 63.9956C35.3732 63.9411 35.3421 63.8789 35.3266 63.8011L28.7855 25.1456L28.7699 25.0522L5.69323 9.21667C4.78323 8.59445 4.40212 7.46667 4.75212 6.42445C5.1099 5.39001 6.06657 4.72889 7.13212 4.78334L134.454 12.9111C134.781 12.9267 135.1 13.1367 135.255 13.4633L135.271 13.5178L135.31 13.5567C135.31 13.5567 135.325 13.6111 135.333 13.6111V13.7433L135.357 13.7978C135.372 13.8367 135.364 13.8989 135.364 13.9533C135.372 14.2178 135.279 14.4745 135.092 14.6611L91.9255 63.7233C90.8677 64.9445 89.3043 65.4578 87.7488 65.1233C87.1732 64.9911 86.6521 64.7733 86.1932 64.4467L70.7155 53.8378L70.6299 53.7756L70.6221 53.7678ZM68.4832 52.3056L55.0588 43.0889L39.3866 61.5144L68.4832 52.3056ZM54.5299 40.7711L128.224 15.3689L33.211 25.1378L30.8621 25.3789L36.9366 61.2889L53.2155 42.1245L54.141 41.0511C54.1799 40.9889 54.2577 40.9345 54.3432 40.88L54.491 40.8256L54.5299 40.7711ZM131.055 16.1778L57.5632 41.8911L57.1355 42.0467L87.3055 62.7511C87.7255 63.0389 88.2155 63.1711 88.6899 63.1633C89.3277 63.1556 89.9732 62.86 90.4477 62.3311L131.048 16.1856L131.055 16.1778Z" fill="black"/>
</g>
<defs>
<clipPath id="clip0_18_41">
<rect width="140" height="70" fill="white"/>
</clipPath>
</defs>
</svg>
