<svg width="95" height="95" viewBox="0 0 95 95" fill="none" xmlns="http://www.w3.org/2000/svg">
<g clip-path="url(#clip0_18_50)">
<path d="M90.13 18.09C86.84 12.2 82.02 7.64999 75.8 4.55999C69.72 1.53999 62.34 0.00999451 53.87 0.00999451C45.4 0.00999451 37.67 1.69999 31.11 5.02999C26.99 7.11999 23.38 9.83999 20.39 13.12C19.26 14.11 18.19 15.17 17.19 16.29C15.92 17.37 14.72 18.55 13.61 19.79C10.38 22.54 7.65 25.86 5.48 29.65C1.84 36.02 0 43.65 0 52.32C0 67.81 3.98 79.09 11.84 85.87L11.92 85.94C15.83 89.1 20.45 91.44 25.66 92.88C30.72 94.29 36.72 95 43.51 95C46.88 95 50.48 94.78 54.23 94.36C56.53 94.1 58.4 92.57 59.16 90.55C60.83 89.96 62.14 88.66 62.74 87.05C64.24 86.52 65.44 85.42 66.11 84.04C68.24 83.05 69.65 80.89 69.54 78.47L69.44 76.35C73.4 75.36 76.68 73.22 79.21 69.96C80.53 68.99 81.73 67.81 82.79 66.46C83.98 65.59 85.07 64.55 86.05 63.36C87.51 62.22 88.82 60.82 89.94 59.2C93.31 54.32 95.02 47.61 95.02 39.28V38.86C95.02 30.86 93.38 23.87 90.15 18.09H90.13Z" fill="white"/>
<path d="M84.29 22.49C81.32 17.18 77.03 13.12 71.4 10.33C65.77 7.54 58.98 6.14 51.01 6.14C43.04 6.14 35.92 7.69 29.81 10.79C25.83 12.81 22.44 15.44 19.62 18.65C18.34 19.73 17.15 20.89 16.04 22.15C13.01 24.69 10.47 27.73 8.45002 31.28C5.09002 37.17 3.40002 44.19 3.40002 52.32C3.40002 66.88 6.96002 77.22 14.08 83.37C17.64 86.25 21.81 88.35 26.59 89.68C31.37 91.01 37 91.67 43.51 91.67C47.37 91.67 51.51 91.38 55.91 90.8C56.09 90.78 56.22 90.62 56.21 90.44L56.08 87.69C57.2 87.58 58.33 87.45 59.49 87.3C59.67 87.28 59.8 87.12 59.79 86.94L59.66 84.19C60.78 84.08 61.91 83.95 63.07 83.8C63.25 83.78 63.38 83.62 63.37 83.44L62.9 73.61C63.27 73.63 63.64 73.66 64.03 73.66C69.54 73.66 73.79 71.63 76.77 67.58C78.12 66.66 79.31 65.49 80.35 64.08C81.83 63.07 83.13 61.76 84.25 60.14C87.25 55.8 88.74 49.78 88.74 42.08V41.66C88.74 34.19 87.26 27.8 84.29 22.48V22.49Z" fill="url(#paint0_radial_18_50)"/>
<path d="M26.59 89.68C21.81 88.35 17.64 86.25 14.08 83.37C6.96002 77.23 3.40002 66.88 3.40002 52.32C3.40002 44.18 5.08002 37.17 8.45002 31.28C11.81 25.39 16.55 20.89 22.65 17.79C28.76 14.69 35.82 13.14 43.85 13.14C51.88 13.14 58.62 14.54 64.24 17.33C69.86 20.13 74.16 24.18 77.13 29.49C80.1 34.8 81.58 41.2 81.58 48.67V49.09C81.58 56.78 80.08 62.8 77.09 67.15C74.09 71.5 69.74 73.67 64.03 73.67C61.49 73.67 59.14 73.27 56.99 72.47C54.97 71.72 53.4 70.73 52.28 69.51C52.16 69.38 51.95 69.36 51.81 69.47C48.01 72.33 44.42 73.76 41.05 73.76C35.23 73.76 31.02 71.98 28.42 68.41C25.82 64.84 24.52 59.57 24.52 52.6C24.52 45.63 25.73 40.78 28.17 37.57C30.6 34.36 34.56 32.75 40.04 32.75C41.79 32.75 43.54 33.25 45.3 34.24L45.89 34.55C46.12 34.67 46.4 34.51 46.4 34.25C46.4 34.06 46.56 33.91 46.75 33.91H60.81C61 33.91 61.16 34.06 61.16 34.25V48.1C61.16 54.44 61.21 57.86 61.32 58.37C61.32 58.39 61.32 58.41 61.32 58.43C61.38 59.58 61.55 60.4 61.83 60.89C62.11 61.39 62.65 61.64 63.44 61.64C64.91 61.64 65.87 60.6 66.32 58.53C66.77 56.45 67 53.31 67 49.11V48.61C67 40.75 65.09 35 61.28 31.34C57.46 27.69 51.57 25.86 43.6 25.86C38.34 25.86 33.81 26.98 29.99 29.22C26.17 31.46 23.23 34.66 21.17 38.81C19.11 42.96 18.07 47.8 18.07 53.34C18.07 61.92 20.05 68.34 24.01 72.6C27.96 76.86 34.46 78.99 43.5 78.99C43.5 78.99 43.51 78.99 43.52 78.99L55.28 78.35C55.47 78.34 55.64 78.49 55.65 78.68L56.21 90.48C56.21 90.66 56.09 90.81 55.91 90.83C51.51 91.41 47.37 91.7 43.51 91.7C37.01 91.7 31.37 91.04 26.59 89.71V89.68ZM46.53 60.25C46.65 60.18 46.72 60.05 46.7 59.91C46.49 58.22 46.39 56.6 46.39 55.06V45.97C46.39 45.8 46.26 45.66 46.09 45.63C45.09 45.49 44.26 45.42 43.59 45.42C42.35 45.42 41.44 45.63 40.88 46.04C40.31 46.46 39.93 47.16 39.74 48.16C39.54 49.16 39.44 50.68 39.44 52.73C39.44 58.26 40.4 61.03 42.32 61.03C44.24 61.03 45.62 60.77 46.53 60.24V60.25Z" stroke="#201A1B" stroke-width="0.66" stroke-miterlimit="10"/>
<path d="M30.17 86.17C25.39 84.84 21.22 82.74 17.66 79.86C10.54 73.72 6.97998 63.37 6.97998 48.81C6.97998 40.67 8.65998 33.66 12.03 27.77C15.39 21.88 20.13 17.38 26.23 14.28C32.34 11.18 39.4 9.63 47.43 9.63C55.46 9.63 62.2 11.03 67.82 13.82C73.44 16.62 77.74 20.67 80.71 25.98C83.68 31.29 85.16 37.69 85.16 45.16V45.58C85.16 53.27 83.66 59.29 80.67 63.64C77.67 67.99 73.32 70.16 67.61 70.16C65.07 70.16 62.72 69.76 60.57 68.96C58.55 68.21 56.98 67.22 55.86 66C55.74 65.87 55.53 65.85 55.39 65.96C51.59 68.82 48 70.25 44.63 70.25C38.81 70.25 34.6 68.47 32 64.9C29.4 61.33 28.1 56.06 28.1 49.09C28.1 42.12 29.31 37.27 31.75 34.06C34.18 30.85 38.14 29.24 43.62 29.24C45.37 29.24 47.12 29.74 48.88 30.73L49.47 31.04C49.7 31.16 49.98 31 49.98 30.74C49.98 30.55 50.14 30.4 50.33 30.4H64.39C64.58 30.4 64.74 30.55 64.74 30.74V44.59C64.74 50.93 64.79 54.35 64.9 54.86C64.9 54.88 64.9 54.9 64.9 54.92C64.96 56.07 65.13 56.89 65.41 57.38C65.69 57.88 66.23 58.13 67.02 58.13C68.49 58.13 69.45 57.09 69.9 55.02C70.35 52.94 70.58 49.8 70.58 45.6V45.1C70.58 37.24 68.67 31.49 64.86 27.83C61.04 24.18 55.15 22.35 47.18 22.35C41.92 22.35 37.39 23.47 33.57 25.71C29.75 27.95 26.81 31.15 24.75 35.3C22.69 39.45 21.65 44.29 21.65 49.83C21.65 58.41 23.63 64.83 27.59 69.09C31.54 73.35 38.04 75.48 47.08 75.48C47.08 75.48 47.09 75.48 47.1 75.48L58.86 74.84C59.05 74.83 59.22 74.98 59.23 75.17L59.79 86.97C59.79 87.15 59.67 87.3 59.49 87.32C55.09 87.9 50.95 88.19 47.09 88.19C40.59 88.19 34.95 87.53 30.17 86.2V86.17ZM50.11 56.74C50.23 56.67 50.3 56.54 50.28 56.4C50.07 54.71 49.97 53.09 49.97 51.55V42.46C49.97 42.29 49.84 42.15 49.67 42.12C48.67 41.98 47.84 41.91 47.17 41.91C45.93 41.91 45.02 42.12 44.46 42.53C43.89 42.95 43.51 43.65 43.32 44.65C43.12 45.65 43.02 47.17 43.02 49.22C43.02 54.75 43.98 57.52 45.9 57.52C47.82 57.52 49.2 57.26 50.11 56.73V56.74Z" stroke="#201A1B" stroke-width="0.66" stroke-miterlimit="10"/>
<path d="M33.7501 82.67C28.9701 81.34 24.8001 79.24 21.2401 76.36C14.1201 70.22 10.5601 59.87 10.5601 45.31C10.5601 37.17 12.2401 30.16 15.6101 24.27C18.9701 18.38 23.7101 13.88 29.8101 10.78C35.9201 7.68 42.9801 6.13 51.0101 6.13C59.0401 6.13 65.7801 7.53 71.4001 10.32C77.0201 13.12 81.3201 17.17 84.2901 22.48C87.2601 27.79 88.7401 34.19 88.7401 41.66V42.08C88.7401 49.77 87.2401 55.79 84.2501 60.14C81.2501 64.49 76.9001 66.66 71.1901 66.66C68.6501 66.66 66.3001 66.26 64.1501 65.46C62.1301 64.71 60.5601 63.72 59.4401 62.5C59.3201 62.37 59.1101 62.35 58.9701 62.46C55.1701 65.32 51.5801 66.75 48.2101 66.75C42.3901 66.75 38.1801 64.97 35.5801 61.4C32.9801 57.83 31.6801 52.56 31.6801 45.59C31.6801 38.62 32.8901 33.77 35.3301 30.56C37.7601 27.35 41.7201 25.74 47.2001 25.74C48.9501 25.74 50.7001 26.24 52.4601 27.23L53.0501 27.54C53.2801 27.66 53.5601 27.5 53.5601 27.24C53.5601 27.05 53.7201 26.9 53.9101 26.9H67.9701C68.1601 26.9 68.3201 27.05 68.3201 27.24V41.09C68.3201 47.43 68.3701 50.85 68.4801 51.36C68.4801 51.38 68.4801 51.4 68.4801 51.42C68.5401 52.57 68.7101 53.39 68.9901 53.88C69.2701 54.38 69.8101 54.63 70.6001 54.63C72.0701 54.63 73.0301 53.59 73.4801 51.52C73.9301 49.44 74.1601 46.3 74.1601 42.1V41.6C74.1601 33.74 72.2501 27.99 68.4401 24.33C64.6201 20.68 58.7301 18.85 50.7601 18.85C45.5001 18.85 40.9701 19.97 37.1501 22.21C33.3301 24.45 30.3901 27.65 28.3301 31.8C26.2701 35.95 25.2301 40.79 25.2301 46.33C25.2301 54.91 27.2101 61.33 31.1701 65.59C35.1201 69.85 41.6201 71.98 50.6601 71.98C50.6601 71.98 50.6701 71.98 50.6801 71.98L62.4401 71.34C62.6301 71.33 62.8001 71.48 62.8101 71.67L63.3701 83.47C63.3701 83.65 63.2501 83.8 63.0701 83.83C58.6701 84.41 54.5301 84.7 50.6701 84.7C44.1701 84.7 38.5301 84.04 33.7501 82.71V82.67ZM53.6901 53.24C53.8101 53.17 53.8801 53.04 53.8601 52.9C53.6501 51.21 53.5501 49.59 53.5501 48.05V38.96C53.5501 38.79 53.4201 38.65 53.2501 38.62C52.2501 38.48 51.4201 38.41 50.7501 38.41C49.5101 38.41 48.6001 38.62 48.0401 39.03C47.4701 39.45 47.0901 40.15 46.9001 41.15C46.7001 42.15 46.6001 43.67 46.6001 45.72C46.6001 51.25 47.5601 54.02 49.4801 54.02C51.4001 54.02 52.7801 53.76 53.6901 53.23V53.24Z" stroke="#201A1B" stroke-width="0.66" stroke-miterlimit="10"/>
<path d="M36.61 79.87C31.83 78.54 27.66 76.44 24.1 73.56C16.98 67.42 13.42 57.07 13.42 42.51C13.42 34.37 15.1 27.36 18.47 21.47C21.83 15.58 26.57 11.08 32.67 7.98C38.78 4.88 45.84 3.33 53.87 3.33C61.9 3.33 68.64 4.73 74.26 7.52C79.8801 10.32 84.18 14.37 87.15 19.68C90.12 24.99 91.6 31.39 91.6 38.86V39.28C91.6 46.97 90.1 52.99 87.11 57.34C84.11 61.69 79.76 63.86 74.05 63.86C71.51 63.86 69.16 63.46 67.01 62.66C64.99 61.91 63.42 60.92 62.3 59.7C62.18 59.57 61.97 59.55 61.83 59.66C58.03 62.52 54.44 63.95 51.07 63.95C45.25 63.95 41.04 62.17 38.44 58.6C35.84 55.03 34.54 49.76 34.54 42.79C34.54 35.82 35.75 30.97 38.19 27.76C40.62 24.55 44.58 22.94 50.06 22.94C51.81 22.94 53.56 23.44 55.32 24.43L55.91 24.74C56.14 24.86 56.42 24.7 56.42 24.44C56.42 24.25 56.58 24.1 56.77 24.1H70.83C71.02 24.1 71.18 24.25 71.18 24.44V38.29C71.18 44.63 71.23 48.05 71.34 48.56C71.34 48.58 71.34 48.6 71.34 48.62C71.4 49.77 71.57 50.59 71.85 51.08C72.13 51.58 72.67 51.83 73.46 51.83C74.93 51.83 75.89 50.79 76.34 48.72C76.79 46.64 77.02 43.5 77.02 39.3V38.8C77.02 30.94 75.1101 25.19 71.3 21.53C67.48 17.88 61.59 16.05 53.62 16.05C48.36 16.05 43.83 17.17 40.01 19.41C36.19 21.65 33.25 24.85 31.19 29C29.13 33.15 28.09 37.99 28.09 43.53C28.09 52.11 30.07 58.53 34.03 62.79C37.98 67.05 44.48 69.18 53.52 69.18C53.52 69.18 53.53 69.18 53.54 69.18L65.3 68.54C65.49 68.53 65.66 68.68 65.67 68.87L66.23 80.67C66.23 80.85 66.11 81 65.93 81.03C61.53 81.61 57.39 81.9 53.53 81.9C47.03 81.9 41.39 81.24 36.61 79.91M56.55 50.44C56.67 50.37 56.74 50.24 56.72 50.1C56.51 48.41 56.41 46.79 56.41 45.25V36.16C56.41 35.99 56.28 35.85 56.11 35.82C55.11 35.68 54.28 35.61 53.61 35.61C52.37 35.61 51.46 35.82 50.9 36.23C50.33 36.65 49.95 37.35 49.76 38.35C49.56 39.35 49.46 40.87 49.46 42.92C49.46 48.45 50.42 51.22 52.34 51.22C54.26 51.22 55.64 50.96 56.55 50.43" fill="#FBBB0C"/>
<path d="M36.61 79.87C31.83 78.54 27.66 76.44 24.1 73.56C16.98 67.42 13.42 57.07 13.42 42.51C13.42 34.37 15.1 27.36 18.47 21.47C21.83 15.58 26.57 11.08 32.67 7.98C38.78 4.88 45.84 3.33 53.87 3.33C61.9 3.33 68.64 4.73 74.26 7.52C79.88 10.32 84.18 14.37 87.15 19.68C90.12 24.99 91.6 31.39 91.6 38.86V39.28C91.6 46.97 90.1 52.99 87.11 57.34C84.11 61.69 79.76 63.86 74.05 63.86C71.51 63.86 69.16 63.46 67.01 62.66C64.99 61.91 63.42 60.92 62.3 59.7C62.18 59.57 61.97 59.55 61.83 59.66C58.03 62.52 54.44 63.95 51.07 63.95C45.25 63.95 41.04 62.17 38.44 58.6C35.84 55.03 34.54 49.76 34.54 42.79C34.54 35.82 35.75 30.97 38.19 27.76C40.62 24.55 44.58 22.94 50.06 22.94C51.81 22.94 53.56 23.44 55.32 24.43L55.91 24.74C56.14 24.86 56.42 24.7 56.42 24.44C56.42 24.25 56.58 24.1 56.77 24.1H70.83C71.02 24.1 71.18 24.25 71.18 24.44V38.29C71.18 44.63 71.23 48.05 71.34 48.56C71.34 48.58 71.34 48.6 71.34 48.62C71.4 49.77 71.57 50.59 71.85 51.08C72.13 51.58 72.67 51.83 73.46 51.83C74.93 51.83 75.89 50.79 76.34 48.72C76.79 46.64 77.02 43.5 77.02 39.3V38.8C77.02 30.94 75.11 25.19 71.3 21.53C67.48 17.88 61.59 16.05 53.62 16.05C48.36 16.05 43.83 17.17 40.01 19.41C36.19 21.65 33.25 24.85 31.19 29C29.13 33.15 28.09 37.99 28.09 43.53C28.09 52.11 30.07 58.53 34.03 62.79C37.98 67.05 44.48 69.18 53.52 69.18C53.52 69.18 53.53 69.18 53.54 69.18L65.3 68.54C65.49 68.53 65.66 68.68 65.67 68.87L66.23 80.67C66.23 80.85 66.11 81 65.93 81.03C61.53 81.61 57.39 81.9 53.53 81.9C47.03 81.9 41.39 81.24 36.61 79.91V79.87ZM56.55 50.44C56.67 50.37 56.74 50.24 56.72 50.1C56.51 48.41 56.41 46.79 56.41 45.25V36.16C56.41 35.99 56.28 35.85 56.11 35.82C55.11 35.68 54.28 35.61 53.61 35.61C52.37 35.61 51.46 35.82 50.9 36.23C50.33 36.65 49.95 37.35 49.76 38.35C49.56 39.35 49.46 40.87 49.46 42.92C49.46 48.45 50.42 51.22 52.34 51.22C54.26 51.22 55.64 50.96 56.55 50.43V50.44Z" stroke="#201A1B" stroke-width="0.66" stroke-miterlimit="10"/>
</g>
<defs>
<radialGradient id="paint0_radial_18_50" cx="0" cy="0" r="1" gradientUnits="userSpaceOnUse" gradientTransform="translate(45.9036 48.7988) scale(53.6424 52.6008)">
<stop offset="0.14" stop-color="#E8571B"/>
<stop offset="0.34" stop-color="#E64832"/>
<stop offset="0.78" stop-color="#E42B5E"/>
<stop offset="1" stop-color="#E42170"/>
</radialGradient>
<clipPath id="clip0_18_50">
<rect width="95" height="95" fill="white"/>
</clipPath>
</defs>
</svg>
