<svg width="420" height="211" viewBox="0 0 420 211" fill="none" xmlns="http://www.w3.org/2000/svg">
<g clip-path="url(#clip0_21_3)">
<path d="M41.7306 116.249C46.2898 116.249 50.0009 114.637 52.8542 111.442C55.7074 108.247 57.134 104.146 57.134 99.1302C57.134 94.1139 55.7074 89.8939 52.8542 86.719C50.0009 83.544 46.2998 81.9516 41.7306 81.9516C37.1615 81.9516 33.2808 83.544 30.3677 86.719C27.4347 89.8939 25.9682 94.0343 25.9682 99.1302C25.9682 104.226 27.4347 108.247 30.3677 111.442C33.2808 114.637 37.0717 116.249 41.7306 116.249ZM87.1924 126.421C87.352 127.814 86.7036 128.66 85.2171 128.969C81.8751 129.964 78.8423 130.462 76.0888 130.462C68.6166 130.462 63.4789 127.993 60.6855 123.047C54.999 128.003 48.1354 130.462 40.1145 130.462C30.647 130.462 22.9254 127.555 16.9496 121.733C10.9838 115.891 7.99097 108.376 7.99097 99.1401C7.99097 89.9039 10.9838 82.2601 16.9696 76.4576C22.9553 70.6551 30.677 67.7489 40.1145 67.7489C46.8784 67.7489 52.6646 69.6101 57.4732 73.3225V72.0087C57.4732 70.476 58.2513 69.6997 59.7976 69.6997H73.3055C74.8518 69.6997 75.61 70.466 75.5701 72.0087V110.088C75.5701 113.243 76.9169 114.816 79.6204 114.816C81.0869 114.816 82.3539 114.676 83.3914 114.408C85.0176 114.249 85.8755 114.895 85.9553 116.349L87.2024 126.411L87.1924 126.421Z" fill="#F7B713"/>
<path d="M154.043 68.8138C155.43 69.1124 156.058 70.0082 155.899 71.4812L154.293 83.1459C154.053 84.599 153.155 85.2062 151.599 84.9872C149.564 84.5791 147.339 84.3801 144.915 84.3801C140.166 84.3801 136.295 85.7934 133.283 88.62C130.25 91.4267 128.743 95.2685 128.743 100.145V126.202C128.743 127.735 127.965 128.511 126.419 128.511H112.751C111.205 128.511 110.407 127.745 110.407 126.202V88.1223C110.407 84.9673 108.821 83.3947 105.638 83.3947C105.309 83.3947 104.441 83.4943 102.945 83.7431C101.149 83.7431 100.251 83.1161 100.251 81.8421V71.8992C100.251 70.5257 100.88 69.6399 102.107 69.2319C104.98 68.2664 107.893 67.7589 110.886 67.7589C118.198 67.7589 123.127 70.5058 125.671 75.9898C130.739 70.5158 137.383 67.7589 145.613 67.7589C149.035 67.7589 151.848 68.1271 154.023 68.8338" fill="#F7B713"/>
<path d="M186.476 94.0343H215.667C215.507 90.2324 214.16 87.1569 211.636 84.7583C209.112 82.3696 205.83 81.1852 201.76 81.1852C197.689 81.1852 194.387 82.3796 191.554 84.7583C188.741 87.1669 187.055 90.2324 186.486 94.0343M202.368 130.462C192.322 130.462 184.241 127.595 178.046 121.833C171.851 116.09 168.758 108.536 168.758 99.1302C168.758 89.7248 171.751 82.0511 177.737 76.3282C183.723 70.6054 191.564 67.739 201.281 67.739C210.998 67.739 218.819 70.5656 224.545 76.2486C230.292 81.9118 233.145 89.3665 233.145 98.6425C233.145 99.1302 233.125 99.8169 233.085 100.723C233.065 101.628 233.045 102.315 233.045 102.783C232.806 104.176 231.948 104.863 230.481 104.863H186.606C187.603 108.506 189.539 111.352 192.432 113.452C195.305 115.532 198.747 116.587 202.717 116.587C207.217 116.587 210.559 115.393 212.744 112.975C213.821 112.188 214.799 111.78 215.677 111.74H229.404C230.322 111.74 230.95 111.959 231.319 112.427C231.669 112.875 231.669 113.462 231.319 114.169C229.204 119.185 225.573 123.146 220.445 126.072C215.307 128.979 209.302 130.462 202.378 130.462" fill="#F7B713"/>
<path d="M294.818 67.739C302.819 67.739 309.264 70.1874 314.132 75.0742C319 79.9909 321.445 86.4702 321.445 94.5618V126.192C321.445 127.725 320.667 128.501 319.12 128.501H305.453C303.827 128.501 303.009 127.735 303.009 126.192V96.9804C303.009 92.8798 301.851 89.5655 299.507 87.0375C297.182 84.5095 294.07 83.2554 290.179 83.2554C286.288 83.2554 282.847 84.4498 280.323 86.8384C277.819 89.2271 276.572 92.3921 276.572 96.3334V126.192C276.572 127.725 275.793 128.501 274.247 128.501H260.58C259.033 128.501 258.235 127.735 258.235 126.192V88.1124C258.235 84.9573 256.649 83.3848 253.467 83.3848C253.137 83.3848 252.269 83.4843 250.773 83.7331C248.977 83.7331 248.079 83.1061 248.079 81.8322V71.8893C248.079 70.5158 248.708 69.63 249.935 69.2219C252.439 68.2466 255.372 67.7489 258.714 67.7489C265.717 67.7489 270.606 70.2968 273.399 75.3927C278.577 70.2968 285.7 67.7489 294.808 67.7489" fill="#F7B713"/>
<path d="M373.511 116.249C378.07 116.249 381.781 114.637 384.634 111.442C387.487 108.247 388.914 104.146 388.914 99.1302C388.914 94.1139 387.487 89.8939 384.634 86.719C381.781 83.544 378.08 81.9516 373.511 81.9516C368.942 81.9516 365.061 83.544 362.148 86.719C359.215 89.8939 357.748 94.0343 357.748 99.1302C357.748 104.226 359.215 108.247 362.148 111.442C365.061 114.637 368.852 116.249 373.511 116.249ZM418.982 126.421C419.142 127.814 418.494 128.66 417.007 128.969C413.665 129.964 410.632 130.462 407.879 130.462C400.407 130.462 395.269 127.993 392.476 123.047C386.789 128.003 379.925 130.462 371.905 130.462C362.437 130.462 354.715 127.555 348.74 121.733C342.774 115.891 339.781 108.376 339.781 99.1401C339.781 89.9039 342.774 82.2601 348.76 76.4576C354.745 70.6551 362.467 67.7489 371.905 67.7489C378.668 67.7489 384.455 69.6101 389.263 73.3225V72.0087C389.263 70.476 390.041 69.6997 391.588 69.6997H405.095C406.642 69.6997 407.4 70.466 407.36 72.0087V110.088C407.36 113.243 408.707 114.816 411.41 114.816C412.877 114.816 414.144 114.676 415.182 114.408C416.808 114.249 417.666 114.895 417.745 116.349L418.992 126.411L418.982 126.421Z" fill="#F7B713"/>
<path d="M159.121 181.261C160.209 182.455 161.605 183.062 163.311 183.062C165.017 183.062 166.434 182.455 167.551 181.261C168.678 180.067 169.227 178.524 169.227 176.643C169.227 174.762 168.668 173.179 167.551 171.985C166.434 170.791 165.027 170.193 163.311 170.193C161.595 170.193 160.199 170.791 159.121 171.985C158.034 173.179 157.485 174.732 157.485 176.643C157.485 178.554 158.024 180.057 159.121 181.261ZM163.86 164.879C167.441 164.879 170.354 165.973 172.599 168.153C174.844 170.333 175.971 173.169 175.971 176.653C175.971 180.136 174.844 182.923 172.599 185.113C170.354 187.302 167.441 188.397 163.86 188.397C161.416 188.397 159.281 187.74 157.485 186.446V197.394C157.485 197.942 157.196 198.221 156.617 198.221H151.489C150.911 198.221 150.611 197.942 150.611 197.394V172.532C150.611 171.348 150.013 170.761 148.826 170.761C148.706 170.761 148.377 170.8 147.818 170.89C147.15 170.89 146.811 170.651 146.811 170.173V166.441C146.811 165.924 147.05 165.595 147.509 165.436C148.447 165.068 149.544 164.879 150.801 164.879C153.485 164.879 155.34 165.854 156.348 167.785C158.333 165.844 160.837 164.879 163.87 164.879" fill="white"/>
<path d="M201.66 165.277C202.179 165.386 202.418 165.725 202.358 166.272L201.76 170.641C201.67 171.189 201.331 171.418 200.752 171.328C199.984 171.179 199.156 171.099 198.248 171.099C196.472 171.099 195.016 171.627 193.888 172.692C192.751 173.747 192.182 175.19 192.182 177.011V186.785C192.182 187.362 191.893 187.651 191.314 187.651H186.187C185.608 187.651 185.309 187.362 185.309 186.785V172.502C185.309 171.318 184.71 170.731 183.523 170.731C183.403 170.731 183.074 170.771 182.515 170.86C181.847 170.86 181.508 170.621 181.508 170.144V166.411C181.508 165.894 181.747 165.565 182.206 165.416C183.284 165.048 184.371 164.859 185.498 164.859C188.242 164.859 190.087 165.894 191.045 167.944C192.951 165.894 195.435 164.859 198.527 164.859C199.814 164.859 200.862 164.998 201.68 165.257" fill="white"/>
<path d="M215.357 181.082C216.474 182.187 217.931 182.754 219.737 182.754C221.542 182.754 222.999 182.196 224.116 181.082C225.224 179.967 225.782 178.494 225.782 176.643C225.782 174.792 225.224 173.309 224.116 172.184C222.999 171.069 221.542 170.512 219.737 170.512C217.931 170.512 216.474 171.069 215.357 172.184C214.25 173.309 213.691 174.792 213.691 176.643C213.691 178.494 214.25 179.967 215.357 181.082ZM228.875 185.152C226.57 187.312 223.518 188.387 219.737 188.387C215.956 188.387 212.903 187.312 210.598 185.152C208.294 183.003 207.137 180.166 207.137 176.643C207.137 173.119 208.294 170.243 210.598 168.093C212.903 165.953 215.956 164.869 219.737 164.869C223.518 164.869 226.57 165.944 228.875 168.093C231.169 170.253 232.327 173.1 232.327 176.633C232.327 180.166 231.169 182.993 228.875 185.143" fill="white"/>
<path d="M243.7 187.651C243.121 187.651 242.832 187.362 242.832 186.785V171.109H237.794C237.215 171.109 236.916 170.82 236.916 170.243V166.471C236.916 165.894 237.215 165.605 237.794 165.605H242.832V162.958C242.832 159.992 243.76 157.633 245.605 155.891C247.451 154.159 249.955 153.284 253.107 153.284C255.183 153.284 257.038 153.542 258.694 154.06C259.213 154.209 259.432 154.528 259.343 155.015L258.744 158.787C258.654 159.424 258.315 159.663 257.736 159.504C256.609 159.205 255.422 159.066 254.205 159.066C252.858 159.066 251.791 159.414 250.983 160.131C250.184 160.848 249.775 161.793 249.775 162.978V165.625H257.427C258.006 165.625 258.295 165.914 258.295 166.491V170.263C258.295 170.84 258.006 171.129 257.427 171.129H249.775V186.805C249.775 187.382 249.486 187.671 248.907 187.671H243.71L243.7 187.651Z" fill="white"/>
<path d="M267.214 187.651C266.635 187.651 266.346 187.362 266.346 186.785V166.471C266.346 165.894 266.635 165.605 267.214 165.605H272.342C272.92 165.605 273.21 165.894 273.21 166.471V186.785C273.21 187.362 272.92 187.651 272.342 187.651H267.214ZM272.681 160.459C271.903 161.186 270.935 161.554 269.778 161.554C268.621 161.554 267.643 161.186 266.865 160.459C266.077 159.733 265.688 158.847 265.688 157.782C265.688 156.717 266.077 155.841 266.865 155.125C267.643 154.408 268.611 154.06 269.778 154.06C270.945 154.06 271.903 154.418 272.681 155.125C273.469 155.841 273.858 156.717 273.858 157.782C273.858 158.847 273.469 159.733 272.681 160.459Z" fill="white"/>
<path d="M291.366 188.387C288.154 188.387 285.55 187.76 283.535 186.496C281.52 185.242 280.342 183.48 280.003 181.231C279.913 180.624 280.203 180.325 280.871 180.325L285.37 180.375C285.779 180.375 286.109 180.584 286.378 181.022C287.017 182.664 288.683 183.48 291.366 183.48C292.503 183.48 293.411 183.301 294.1 182.923C294.788 182.555 295.127 182.067 295.127 181.46C295.127 180.674 294.638 180.106 293.671 179.758C292.693 179.42 291.506 179.161 290.099 178.992C288.703 178.832 287.296 178.584 285.879 178.245C284.463 177.917 283.275 177.23 282.298 176.195C281.32 175.16 280.831 173.766 280.831 172.005C280.831 169.855 281.769 168.133 283.635 166.829C285.5 165.525 287.954 164.879 291.017 164.879C293.9 164.879 296.304 165.476 298.23 166.67C300.165 167.874 301.283 169.457 301.602 171.418C301.692 172.025 301.422 172.323 300.774 172.323H296.225C295.816 172.323 295.516 172.144 295.307 171.766C295.037 171.099 294.509 170.572 293.721 170.163C292.942 169.755 292.065 169.546 291.097 169.546C290.019 169.546 289.151 169.726 288.503 170.074C287.845 170.422 287.515 170.88 287.515 171.457C287.515 172.273 288.014 172.871 289.002 173.269C289.989 173.667 291.197 173.956 292.633 174.155C294.05 174.364 295.466 174.622 296.873 174.961C298.28 175.299 299.467 175.966 300.465 177.001C301.462 178.036 301.951 179.41 301.951 181.141C301.951 183.361 301.003 185.123 299.108 186.426C297.212 187.73 294.628 188.377 291.366 188.377" fill="white"/>
<path d="M318.96 188.387C315.748 188.387 313.144 187.76 311.129 186.496C309.114 185.242 307.937 183.48 307.597 181.231C307.508 180.624 307.797 180.325 308.465 180.325L312.965 180.375C313.374 180.375 313.703 180.584 313.972 181.022C314.611 182.664 316.277 183.48 318.96 183.48C320.098 183.48 321.006 183.301 321.694 182.923C322.382 182.555 322.721 182.067 322.721 181.46C322.721 180.674 322.233 180.106 321.265 179.758C320.287 179.42 319.1 179.161 317.693 178.992C316.297 178.832 314.89 178.584 313.474 178.245C312.057 177.917 310.87 177.23 309.892 176.195C308.914 175.16 308.426 173.766 308.426 172.005C308.426 169.855 309.363 168.133 311.229 166.829C313.094 165.525 315.549 164.879 318.611 164.879C321.494 164.879 323.899 165.476 325.824 166.67C327.76 167.874 328.877 169.457 329.196 171.418C329.286 172.025 329.017 172.323 328.368 172.323H323.819C323.41 172.323 323.111 172.144 322.901 171.766C322.632 171.099 322.103 170.572 321.315 170.163C320.537 169.755 319.659 169.546 318.691 169.546C317.614 169.546 316.746 169.726 316.097 170.074C315.439 170.422 315.11 170.88 315.11 171.457C315.11 172.273 315.608 172.871 316.596 173.269C317.584 173.667 318.791 173.956 320.227 174.155C321.644 174.364 323.061 174.622 324.467 174.961C325.874 175.299 327.061 175.966 328.059 177.001C329.056 178.036 329.545 179.41 329.545 181.141C329.545 183.361 328.598 185.123 326.702 186.426C324.807 187.73 322.223 188.377 318.96 188.377" fill="white"/>
<path d="M343.941 181.082C345.058 182.187 346.515 182.754 348.321 182.754C350.126 182.754 351.583 182.196 352.7 181.082C353.808 179.967 354.366 178.494 354.366 176.643C354.366 174.792 353.808 173.309 352.7 172.184C351.583 171.069 350.126 170.512 348.321 170.512C346.515 170.512 345.058 171.069 343.941 172.184C342.834 173.309 342.275 174.792 342.275 176.643C342.275 178.494 342.834 179.967 343.941 181.082ZM357.459 185.152C355.154 187.312 352.102 188.387 348.321 188.387C344.54 188.387 341.487 187.312 339.182 185.152C336.878 183.003 335.721 180.166 335.721 176.643C335.721 173.119 336.878 170.243 339.182 168.093C341.487 165.943 344.54 164.869 348.321 164.869C352.102 164.869 355.154 165.943 357.459 168.093C359.753 170.253 360.911 173.1 360.911 176.633C360.911 180.166 359.753 182.993 357.459 185.143M351.513 161.962C350.326 161.962 349.109 161.604 347.882 160.878C346.655 160.151 345.867 159.783 345.517 159.783C345.019 159.783 344.699 160.022 344.55 160.499C344.25 161.017 343.951 161.276 343.632 161.276H340.16C339.552 161.276 339.272 160.977 339.332 160.4C339.482 158.728 340.06 157.394 341.068 156.409C342.076 155.433 343.392 154.936 345.019 154.936C346.236 154.936 347.463 155.304 348.68 156.03C349.897 156.757 350.675 157.125 351.014 157.125C351.513 157.125 351.842 156.857 352.022 156.349C352.201 155.861 352.501 155.612 352.89 155.612H356.382C356.99 155.612 357.269 155.901 357.19 156.488C357.04 158.16 356.451 159.494 355.414 160.479C354.386 161.455 353.079 161.952 351.503 161.952" fill="white"/>
<path d="M373.81 174.732H384.754C384.694 173.309 384.185 172.154 383.237 171.258C382.29 170.363 381.063 169.915 379.536 169.915C378.01 169.915 376.773 170.363 375.705 171.258C374.648 172.164 374.019 173.309 373.8 174.732M379.766 188.387C376.005 188.387 372.972 187.312 370.647 185.152C368.323 183.003 367.166 180.166 367.166 176.643C367.166 173.119 368.293 170.243 370.538 168.093C372.782 165.953 375.725 164.869 379.367 164.869C383.008 164.869 385.941 165.934 388.086 168.063C390.241 170.183 391.308 172.98 391.308 176.464C391.308 176.643 391.308 176.902 391.288 177.24C391.288 177.578 391.268 177.837 391.268 178.016C391.179 178.544 390.859 178.793 390.311 178.793H373.86C374.239 180.156 374.957 181.221 376.045 182.017C377.122 182.794 378.409 183.192 379.905 183.192C381.591 183.192 382.848 182.744 383.666 181.838C384.075 181.54 384.435 181.39 384.764 181.37H389.912C390.251 181.37 390.49 181.45 390.63 181.629C390.76 181.798 390.76 182.017 390.63 182.276C389.832 184.157 388.475 185.64 386.55 186.745C384.624 187.84 382.37 188.387 379.776 188.387" fill="white"/>
<path d="M408.417 188.387C405.205 188.387 402.601 187.76 400.586 186.496C398.571 185.242 397.394 183.48 397.055 181.231C396.965 180.624 397.254 180.325 397.922 180.325L402.422 180.375C402.831 180.375 403.16 180.584 403.429 181.022C404.068 182.664 405.734 183.48 408.417 183.48C409.555 183.48 410.463 183.301 411.151 182.923C411.839 182.555 412.179 182.067 412.179 181.46C412.179 180.674 411.69 180.106 410.722 179.758C409.744 179.42 408.557 179.161 407.15 178.992C405.754 178.832 404.347 178.584 402.931 178.245C401.514 177.917 400.327 177.23 399.349 176.195C398.371 175.16 397.883 173.766 397.883 172.005C397.883 169.855 398.82 168.133 400.686 166.829C402.551 165.525 405.006 164.879 408.068 164.879C410.951 164.879 413.356 165.476 415.281 166.67C417.217 167.874 418.334 169.457 418.653 171.418C418.743 172.025 418.474 172.323 417.825 172.323H413.276C412.867 172.323 412.568 172.144 412.358 171.766C412.089 171.099 411.56 170.572 410.772 170.163C409.994 169.755 409.116 169.546 408.148 169.546C407.071 169.546 406.203 169.726 405.554 170.074C404.896 170.422 404.567 170.88 404.567 171.457C404.567 172.273 405.065 172.871 406.053 173.269C407.041 173.667 408.248 173.956 409.684 174.155C411.101 174.364 412.518 174.622 413.924 174.961C415.331 175.299 416.518 175.966 417.516 177.001C418.513 178.036 419.002 179.41 419.002 181.141C419.002 183.361 418.055 185.123 416.159 186.426C414.264 187.73 411.68 188.377 408.417 188.377" fill="white"/>
<path d="M49.522 175.747L61.3139 184.247V191.95C61.3139 202.47 69.9134 211 80.5182 211H113.998C124.603 211 133.203 202.47 133.203 191.95V159.544C133.203 149.024 124.603 140.494 113.998 140.494H80.5182C69.9134 140.494 61.3139 149.024 61.3139 159.544V167.247L49.522 175.747Z" fill="#F7B713"/>
<path fill-rule="evenodd" clip-rule="evenodd" d="M97.5876 157.125C107.953 157.125 116.353 165.466 116.353 175.747C116.353 186.028 107.953 194.369 97.5876 194.369C87.2223 194.369 78.8223 186.028 78.8223 175.747C78.8223 165.466 87.2223 157.125 97.5876 157.125ZM104.89 176.832L94.6645 182.784C94.465 182.893 94.2555 182.953 94.036 182.953C93.8166 182.953 93.617 182.893 93.4175 182.784C93.0284 182.565 92.779 182.137 92.779 181.689V169.775C92.779 169.318 93.0185 168.9 93.4175 168.681C93.8066 168.462 94.2755 168.462 94.6546 168.681L104.88 174.632C105.269 174.861 105.509 175.279 105.509 175.727C105.509 176.175 105.269 176.593 104.88 176.812" fill="#E42170"/>
<path d="M90.0955 22.0355V34.3671H90.1155C90.1155 37.343 87.6913 39.7516 84.7383 39.7516C81.7853 39.7516 79.3411 37.343 79.3411 34.3671H79.3511V18.8606H72.9663V34.3671C72.9663 40.8663 78.2338 46.1413 84.7383 46.1413C91.2428 46.1413 96.4903 40.8663 96.4903 34.3671V22.0256C96.4703 20.2739 95.0537 18.8606 93.2979 18.8606C91.5421 18.8606 90.1155 20.2838 90.1055 22.0355" fill="white"/>
<path d="M71.0009 40.7966C69.8836 40.717 69.1454 40.3488 68.7862 39.7018C68.3772 38.9753 68.1677 38.0298 68.1677 36.9051V5.2551L61.9525 6.40962V21.2891C59.7278 19.7365 57.0242 18.8308 54.1012 18.8308C46.4893 18.8308 40.324 25.0015 40.324 32.6154C40.324 40.2293 46.4893 46.4001 54.1012 46.4001C56.5154 46.4001 58.78 45.783 60.7553 44.6882C60.915 44.6086 61.0746 44.519 61.2342 44.4394V44.4195C61.8627 44.0313 62.4712 43.5934 63.0299 43.1057L63.1297 43.2351C63.7482 44.0711 64.5762 44.7181 65.6437 45.1958C66.6812 45.6536 68.0679 45.8925 69.7639 45.8925C70.133 45.8925 70.6318 45.8925 71.1306 45.8527C71.1506 45.8527 71.1606 45.8527 71.1805 45.8328C72.4674 45.7133 73.475 44.6285 73.475 43.3048C73.475 41.981 72.3677 40.7966 70.991 40.7668M54.1112 25.0214C57.7226 25.0214 60.7553 27.5494 61.5235 30.9334C61.6931 32.1178 61.6532 32.9936 61.5335 34.2477C60.7952 37.6715 57.7525 40.2293 54.1112 40.2293C44.2347 40.2293 44.2446 25.0214 54.1112 25.0214Z" fill="white"/>
<path d="M117.49 39.5227C117.171 39.7715 116.822 40.0004 116.443 40.1995C115.495 40.6971 114.378 40.9559 113.081 40.9559C111.784 40.9559 110.667 40.6971 109.739 40.1995C108.791 39.6919 108.023 39.0449 107.414 38.2388C106.796 37.4525 106.347 36.5368 106.028 35.5415C105.738 34.5264 105.569 33.5112 105.569 32.5059C105.569 31.5007 105.728 30.4855 106.028 29.4902C106.347 28.5148 106.796 27.6191 107.414 26.8129C108.023 26.0266 108.801 25.3797 109.739 24.902C110.667 24.4143 111.794 24.1655 113.081 24.1655C114.368 24.1655 115.495 24.4143 116.443 24.902C117.371 25.3797 118.159 26.0167 118.777 26.8129L118.987 27.1613L122.947 22.4635C121.72 21.3488 120.284 20.4531 118.608 19.836C116.892 19.189 115.056 18.8506 113.091 18.8506C111.125 18.8506 109.31 19.1791 107.574 19.836C105.838 20.4829 104.352 21.3986 103.095 22.5929C101.838 23.7873 100.82 25.2205 100.082 26.9025C99.3435 28.5845 98.9744 30.4457 98.9744 32.5059C98.9744 34.5662 99.3435 36.4273 100.082 38.1293C100.82 39.8312 101.828 41.2843 103.095 42.4986C104.352 43.7029 105.848 44.6583 107.574 45.3351C109.31 46.0119 111.145 46.3702 113.091 46.3702C115.036 46.3702 116.892 46.0219 118.608 45.3351C119.446 45.0067 120.234 44.6086 120.952 44.1507C121.84 43.6531 122.429 42.6976 122.429 41.6128C122.429 40.0004 121.122 38.6966 119.515 38.6966C118.727 38.6966 118.019 39.0051 117.49 39.5127" fill="white"/>
<path d="M146.192 30.3362C146.192 23.5086 143.867 18.8706 135.637 18.8706C134.879 18.8606 131.996 18.8606 129.671 18.8706C125.641 18.8706 125.641 25.31 129.671 25.31C131.257 25.31 132.844 25.31 134.43 25.31C137.363 25.31 139.767 25.7977 139.807 28.8433C112.113 28.8433 124.045 54.004 142.401 43.5934C144.207 45.4645 146.79 46.1015 149.574 45.9124V40.6374C146.551 40.5777 146.012 37.6316 146.012 34.7155C146.012 33.0633 146.192 31.431 146.192 30.3362ZM140.176 39.1743C129.701 45.3252 123.785 33.8098 139.837 33.8098C139.707 35.8999 139.837 37.6814 140.176 39.1743Z" fill="white"/>
<path d="M30.3178 29.321H24.4318C20.0422 29.321 20.0422 35.9994 24.4318 35.9994H30.3178C41.5809 35.9994 41.5809 18.8506 30.3178 18.8506H25.2598C5.62655 18.8506 6.6541 46.3603 24.4717 46.3603H38.8674V39.7814H24.4717C15.114 39.7814 15.0741 25.529 24.4717 25.529H29.9786C29.9786 25.3897 32.2532 25.4892 32.2532 27.42C32.2532 28.485 31.3952 29.3111 30.3277 29.3111" fill="white"/>
<path fill-rule="evenodd" clip-rule="evenodd" d="M158.612 43.265C158.562 44.9868 157.156 46.3702 155.42 46.3702C153.684 46.3702 152.228 44.937 152.228 43.1754V30.6647C152.228 24.1555 157.485 18.8905 164 18.8905C165.227 18.8905 166.444 18.9104 167.312 18.9203V24.9816L164 25.0015C161.027 25.0015 158.622 27.6888 158.622 30.6547V43.255L158.612 43.265Z" fill="white"/>
<path d="M220.884 37.6018C220.884 39.0151 220.605 40.3089 220.076 41.3739C219.547 42.4787 218.769 43.3844 217.781 44.091C216.824 44.7977 215.686 45.3053 214.4 45.6437C213.093 45.992 211.656 46.1413 209.601 46.1413H199.286V39.5724H210.21C210.908 39.5724 213.811 39.5525 213.811 37.562C213.811 35.8899 209.84 35.7605 209.102 35.6311C208.583 35.5415 208.015 35.452 207.356 35.3226C206.658 35.1932 205.92 35.014 205.181 34.7851C204.413 34.5662 203.655 34.2676 202.917 33.8993C202.129 33.4913 201.41 32.9936 200.782 32.4064C200.143 31.7993 199.605 31.0429 199.226 30.1969C198.817 29.331 198.617 28.3257 198.617 27.2011C198.617 25.5788 198.986 24.1854 199.685 23.0607C200.383 21.9758 201.271 21.1099 202.348 20.463C203.376 19.8758 204.533 19.4279 205.79 19.199C206.947 18.98 208.214 18.8506 209.601 18.8506H216.155C217.951 18.8606 219.418 20.3336 219.418 22.1351C219.418 23.9365 217.951 25.4096 216.155 25.4195L208.863 25.4295C208.583 25.4494 205.72 25.2205 205.72 26.9921C205.72 28.7637 209.82 28.9229 211.935 29.2414C212.614 29.331 213.641 29.53 214.36 29.7589C215.118 29.968 215.886 30.2566 216.624 30.6248C217.412 30.9931 218.131 31.4907 218.739 32.0979C219.378 32.7249 219.896 33.5012 220.305 34.3771C220.695 35.2728 220.894 36.3676 220.894 37.5918M187.144 29.321H181.258C176.869 29.321 176.869 35.9994 181.258 35.9994H187.144C198.408 35.9994 198.408 18.8506 187.144 18.8506H182.086C162.453 18.8506 163.481 46.3603 181.298 46.3603H195.694V39.7814H181.298C171.941 39.7814 171.901 25.529 181.298 25.529H186.805C186.805 25.3897 189.08 25.4892 189.08 27.42C189.08 28.485 188.222 29.3111 187.154 29.3111" fill="white"/>
<path d="M0 62.6332V12.6202C0 5.66316 5.65653 0 12.61 0H219.088C226.042 0 231.698 5.66316 231.698 12.6202V39.8412C231.698 46.7982 226.042 52.4614 219.088 52.4614H27.734C27.5843 52.4614 13.5378 52.4614 12.5501 52.4614L0 62.6332ZM219.088 0.298585H12.61C5.81615 0.298585 0.289311 5.83236 0.289311 12.6202V62.0061L12.4404 52.1528H12.4903C12.58 52.1528 27.5743 52.1528 27.724 52.1528H219.078C225.872 52.1528 231.399 46.6191 231.399 39.8312V12.6202C231.399 5.82241 225.872 0.298585 219.078 0.298585" fill="white"/>
</g>
<defs>
<clipPath id="clip0_21_3">
<rect width="420" height="211" fill="white"/>
</clipPath>
</defs>
</svg>
