<svg width="380" height="78" viewBox="0 0 380 78" fill="none" xmlns="http://www.w3.org/2000/svg">
<g clip-path="url(#clip0_28_1314)">
<path d="M67.01 16.47V25.68H67.02C67.02 27.9 65.22 29.7 63.02 29.7C60.82 29.7 59.01 27.9 59.01 25.68H59.02V14.09H54.27V25.68C54.27 30.53 58.18 34.48 63.02 34.48C67.86 34.48 71.76 30.54 71.76 25.68V16.46C71.75 15.15 70.69 14.09 69.38 14.09C68.07 14.09 67.01 15.15 67 16.47" fill="white"/>
<path d="M52.81 30.48C51.98 30.42 51.43 30.14 51.17 29.66C50.87 29.11 50.71 28.41 50.71 27.57V3.91998L46.09 4.78998V15.91C44.43 14.75 42.42 14.07 40.25 14.07C34.59 14.07 30 18.68 30 24.37C30 30.06 34.59 34.67 40.25 34.67C42.04 34.67 43.73 34.21 45.2 33.39C45.32 33.33 45.44 33.27 45.56 33.2C46.04 32.9 46.49 32.57 46.91 32.21L46.98 32.31C47.44 32.94 48.06 33.42 48.85 33.78C49.63 34.13 50.65 34.3 51.91 34.3C52.19 34.3 52.56 34.3 52.93 34.27C52.94 34.27 52.96 34.27 52.97 34.26C53.93 34.17 54.68 33.36 54.68 32.37C54.68 31.38 53.86 30.49 52.83 30.47M40.24 18.7C42.93 18.7 45.18 20.59 45.75 23.12C45.88 24.01 45.85 24.66 45.76 25.59C45.21 28.14 42.95 30.06 40.24 30.06C32.89 30.06 32.91 18.7 40.24 18.7Z" fill="white"/>
<path d="M87.3801 29.53C87.1401 29.72 86.8801 29.88 86.6001 30.04C85.9001 30.41 85.0601 30.61 84.1001 30.61C83.1401 30.61 82.3001 30.41 81.6101 30.04C80.9101 29.66 80.3301 29.18 79.8801 28.58C79.4201 27.99 79.0801 27.31 78.8501 26.56C78.6301 25.8 78.5101 25.04 78.5101 24.3C78.5101 23.56 78.6301 22.79 78.8501 22.05C79.0901 21.32 79.4201 20.65 79.8801 20.05C80.3301 19.46 80.9101 18.98 81.6101 18.62C82.3001 18.25 83.1401 18.07 84.1001 18.07C85.0601 18.07 85.9001 18.26 86.6001 18.62C87.2901 18.97 87.8801 19.46 88.3301 20.05L88.4901 20.31L91.4301 16.8C90.5201 15.96 89.4501 15.3 88.2001 14.84C86.9201 14.35 85.5601 14.11 84.1001 14.11C82.6401 14.11 81.2901 14.36 80.0001 14.84C78.7101 15.33 77.6001 16.01 76.6601 16.9C75.7201 17.79 74.9701 18.87 74.4201 20.12C73.8701 21.38 73.6001 22.76 73.6001 24.31C73.6001 25.86 73.8701 27.24 74.4201 28.51C74.9701 29.78 75.7201 30.87 76.6601 31.77C77.6001 32.67 78.7101 33.38 80.0001 33.89C81.2901 34.4 82.6601 34.66 84.1001 34.66C85.5401 34.66 86.9301 34.4 88.2001 33.89C88.8301 33.64 89.4101 33.35 89.9501 33C90.6101 32.63 91.0501 31.92 91.0501 31.1C91.0501 29.9 90.0801 28.92 88.8801 28.92C88.2901 28.92 87.7601 29.15 87.3701 29.53" fill="white"/>
<path d="M108.73 22.67C108.73 17.57 107 14.1 100.88 14.1C100.32 14.1 98.1699 14.1 96.4399 14.1C93.4399 14.1 93.4399 18.91 96.4399 18.91C97.6199 18.91 98.7999 18.91 99.9799 18.91C102.16 18.91 103.95 19.28 103.98 21.55C83.3799 21.55 92.2599 40.35 105.91 32.57C107.25 33.97 109.17 34.44 111.25 34.3V30.36C109 30.31 108.6 28.11 108.6 25.94C108.6 24.71 108.73 23.49 108.73 22.67ZM104.25 29.27C96.4599 33.87 92.0599 25.26 104 25.26C103.91 26.83 104 28.15 104.25 29.27Z" fill="white"/>
<path d="M22.5501 21.91H18.1701C14.9101 21.91 14.9101 26.9 18.1701 26.9H22.5501C30.9201 26.9 30.9201 14.09 22.5501 14.09H18.7901C4.19012 14.09 4.95012 34.65 18.2001 34.65H28.9101V29.74H18.2001C11.2401 29.74 11.2101 19.09 18.2001 19.09H22.2901C22.2901 18.99 23.9801 19.06 23.9801 20.51C23.9801 21.31 23.3401 21.93 22.5501 21.93" fill="white"/>
<path fill-rule="evenodd" clip-rule="evenodd" d="M117.96 32.33C117.93 33.62 116.88 34.65 115.59 34.65C114.3 34.65 113.21 33.58 113.21 32.26V22.91C113.21 18.04 117.12 14.11 121.96 14.11C122.87 14.11 123.78 14.12 124.42 14.14V18.67H121.96C119.75 18.68 117.96 20.69 117.96 22.91V32.33Z" fill="white"/>
<path d="M164.28 28.1C164.28 29.16 164.07 30.12 163.68 30.92C163.29 31.74 162.71 32.42 161.97 32.95C161.26 33.48 160.41 33.86 159.46 34.11C158.49 34.37 157.42 34.48 155.89 34.48H148.22V29.57H156.34C156.86 29.57 159.02 29.55 159.02 28.07C159.02 26.82 156.07 26.72 155.52 26.62C155.13 26.55 154.71 26.49 154.22 26.39C153.7 26.29 153.15 26.16 152.61 25.99C152.04 25.82 151.48 25.6 150.93 25.33C150.34 25.03 149.81 24.66 149.34 24.21C148.86 23.76 148.47 23.19 148.18 22.56C147.88 21.92 147.73 21.16 147.73 20.32C147.73 19.11 148 18.06 148.52 17.23C149.04 16.42 149.7 15.77 150.5 15.29C151.27 14.85 152.13 14.52 153.06 14.34C153.92 14.18 154.87 14.08 155.89 14.08H160.76C162.1 14.08 163.19 15.19 163.19 16.54C163.19 17.89 162.1 18.99 160.76 19H155.34C155.13 19.01 153 18.85 153 20.17C153 21.49 156.05 21.62 157.62 21.85C158.12 21.92 158.89 22.07 159.43 22.23C159.99 22.38 160.56 22.6 161.11 22.88C161.7 23.15 162.23 23.52 162.68 23.98C163.16 24.45 163.54 25.03 163.84 25.69C164.13 26.36 164.28 27.17 164.28 28.1ZM139.19 21.91H134.81C131.55 21.91 131.55 26.9 134.81 26.9H139.19C147.56 26.9 147.56 14.09 139.19 14.09H135.43C120.83 14.09 121.59 34.65 134.84 34.65H145.55V29.74H134.84C127.88 29.74 127.85 19.09 134.84 19.09H138.93C138.93 18.99 140.62 19.06 140.62 20.51C140.62 21.31 139.98 21.93 139.19 21.93" fill="white"/>
<path d="M0 46.8V9.43C0 4.23 4.21 0 9.38 0H162.95C168.12 0 172.33 4.23 172.33 9.43V29.77C172.33 34.97 168.12 39.2 162.95 39.2H20.63C20.52 39.2 10.07 39.2 9.34 39.2L0 46.8ZM162.95 0.22H9.38C4.33 0.22 0.22 4.35 0.22 9.43V46.34L9.26 38.98H9.3C9.37 38.98 20.52 38.98 20.63 38.98H162.95C168 38.98 172.11 34.85 172.11 29.77V9.43C172.11 4.35 168 0.22 162.95 0.22Z" fill="white"/>
<path d="M199.86 32.55C202.04 32.55 203.81 31.77 205.17 30.24C206.53 28.71 207.21 26.74 207.21 24.33C207.21 21.92 206.53 19.9 205.17 18.38C203.81 16.86 202.04 16.09 199.86 16.09C197.68 16.09 195.82 16.86 194.43 18.38C193.03 19.9 192.33 21.89 192.33 24.33C192.33 26.77 193.03 28.7 194.43 30.24C195.82 31.77 197.63 32.55 199.86 32.55ZM221.57 37.42C221.65 38.09 221.34 38.5 220.63 38.64C219.03 39.12 217.59 39.36 216.27 39.36C212.7 39.36 210.25 38.18 208.92 35.8C206.21 38.18 202.93 39.36 199.1 39.36C194.58 39.36 190.89 37.96 188.04 35.17C185.19 32.37 183.76 28.76 183.76 24.33C183.76 19.9 185.19 16.23 188.05 13.45C190.91 10.67 194.6 9.27002 199.1 9.27002C202.33 9.27002 205.09 10.16 207.39 11.95V11.32C207.39 10.58 207.76 10.21 208.5 10.21H214.95C215.69 10.21 216.05 10.58 216.03 11.32V29.59C216.03 31.1 216.67 31.86 217.97 31.86C218.67 31.86 219.27 31.79 219.77 31.67C220.55 31.59 220.96 31.9 221 32.6L221.59 37.43L221.57 37.42Z" fill="#F7B713"/>
<path d="M253.49 9.79003C254.15 9.94003 254.45 10.36 254.37 11.07L253.6 16.67C253.48 17.37 253.06 17.66 252.32 17.55C251.35 17.36 250.29 17.26 249.13 17.26C246.86 17.26 245.02 17.94 243.58 19.3C242.13 20.65 241.41 22.49 241.41 24.83V37.33C241.41 38.07 241.04 38.44 240.3 38.44H233.77C233.03 38.44 232.65 38.07 232.65 37.33V19.06C232.65 17.55 231.89 16.79 230.37 16.79C230.21 16.79 229.8 16.84 229.09 16.95C228.23 16.95 227.81 16.65 227.81 16.04V11.27C227.81 10.61 228.11 10.18 228.7 9.99003C230.07 9.52003 231.46 9.28003 232.89 9.28003C236.38 9.28003 238.74 10.6 239.95 13.23C242.37 10.6 245.54 9.28003 249.47 9.28003C251.1 9.28003 252.45 9.45003 253.49 9.79003Z" fill="#F7B713"/>
<path d="M268.97 21.89H282.91C282.83 20.07 282.19 18.59 280.98 17.44C279.77 16.3 278.21 15.72 276.26 15.72C274.31 15.72 272.74 16.29 271.39 17.44C270.05 18.59 269.24 20.07 268.97 21.89ZM276.56 39.36C271.76 39.36 267.9 37.98 264.95 35.22C261.99 32.47 260.51 28.84 260.51 24.33C260.51 19.82 261.94 16.14 264.8 13.39C267.66 10.65 271.4 9.27002 276.04 9.27002C280.68 9.27002 284.41 10.63 287.15 13.35C289.89 16.06 291.25 19.64 291.25 24.09C291.25 24.32 291.25 24.65 291.22 25.09C291.22 25.53 291.2 25.86 291.2 26.08C291.08 26.75 290.67 27.08 289.97 27.08H269.02C269.5 28.83 270.42 30.19 271.8 31.2C273.17 32.2 274.82 32.7 276.71 32.7C278.86 32.7 280.45 32.13 281.5 30.96C282.02 30.58 282.48 30.39 282.9 30.37H289.46C289.9 30.37 290.2 30.48 290.37 30.7C290.54 30.91 290.54 31.19 290.37 31.53C289.36 33.93 287.63 35.84 285.18 37.24C282.73 38.64 279.86 39.34 276.55 39.34" fill="#F7B713"/>
<path d="M320.71 9.27002C324.53 9.27002 327.61 10.44 329.93 12.79C332.25 15.15 333.42 18.26 333.42 22.14V37.32C333.42 38.06 333.05 38.43 332.31 38.43H325.78C325 38.43 324.61 38.06 324.61 37.32V23.31C324.61 21.34 324.06 19.75 322.94 18.54C321.83 17.33 320.34 16.73 318.49 16.73C316.64 16.73 314.99 17.3 313.78 18.45C312.58 19.59 311.99 21.12 311.99 23.01V37.33C311.99 38.07 311.62 38.44 310.88 38.44H304.35C303.61 38.44 303.23 38.07 303.23 37.33V19.06C303.23 17.55 302.47 16.79 300.95 16.79C300.79 16.79 300.38 16.84 299.67 16.95C298.81 16.95 298.39 16.65 298.39 16.04V11.27C298.39 10.61 298.69 10.18 299.28 9.99002C300.48 9.52002 301.88 9.28002 303.47 9.28002C306.82 9.28002 309.15 10.5 310.48 12.95C312.95 10.51 316.35 9.28002 320.7 9.28002" fill="#F7B713"/>
<path d="M358.28 32.55C360.46 32.55 362.23 31.77 363.59 30.24C364.95 28.71 365.63 26.74 365.63 24.33C365.63 21.92 364.95 19.9 363.59 18.38C362.23 16.86 360.46 16.09 358.28 16.09C356.1 16.09 354.24 16.86 352.85 18.38C351.45 19.9 350.75 21.89 350.75 24.33C350.75 26.77 351.45 28.7 352.85 30.24C354.24 31.77 356.05 32.55 358.28 32.55ZM379.99 37.42C380.07 38.09 379.76 38.5 379.05 38.64C377.45 39.12 376.01 39.36 374.69 39.36C371.12 39.36 368.67 38.18 367.34 35.8C364.63 38.18 361.35 39.36 357.52 39.36C353 39.36 349.31 37.96 346.46 35.17C343.61 32.37 342.18 28.76 342.18 24.33C342.18 19.9 343.61 16.23 346.47 13.45C349.33 10.67 353.02 9.27002 357.52 9.27002C360.75 9.27002 363.51 10.16 365.81 11.95V11.32C365.81 10.58 366.18 10.21 366.92 10.21H373.37C374.11 10.21 374.47 10.58 374.45 11.32V29.59C374.45 31.1 375.09 31.86 376.39 31.86C377.09 31.86 377.69 31.79 378.19 31.67C378.97 31.59 379.38 31.9 379.42 32.6L380.01 37.43L379.99 37.42Z" fill="#F7B713"/>
<path d="M255.91 63.73C256.43 64.3 257.1 64.6 257.91 64.6C258.72 64.6 259.4 64.31 259.93 63.73C260.47 63.16 260.73 62.42 260.73 61.52C260.73 60.62 260.46 59.86 259.93 59.29C259.4 58.72 258.72 58.43 257.91 58.43C257.1 58.43 256.43 58.72 255.91 59.29C255.39 59.86 255.13 60.61 255.13 61.52C255.13 62.43 255.39 63.16 255.91 63.73ZM258.17 55.87C259.88 55.87 261.27 56.39 262.34 57.44C263.41 58.49 263.95 59.85 263.95 61.52C263.95 63.19 263.41 64.53 262.34 65.58C261.27 66.63 259.88 67.16 258.17 67.16C257 67.16 255.99 66.85 255.12 66.22V71.47C255.12 71.73 254.98 71.87 254.7 71.87H252.25C251.97 71.87 251.83 71.74 251.83 71.47V59.54C251.83 58.97 251.55 58.69 250.98 58.69C250.92 58.69 250.76 58.71 250.5 58.75C250.18 58.75 250.02 58.64 250.02 58.41V56.62C250.02 56.37 250.13 56.21 250.35 56.14C250.8 55.97 251.32 55.87 251.92 55.87C253.2 55.87 254.09 56.34 254.57 57.27C255.52 56.34 256.71 55.87 258.16 55.87" fill="white"/>
<path d="M276.22 56.06C276.47 56.11 276.58 56.27 276.55 56.54L276.26 58.64C276.22 58.9 276.06 59.01 275.78 58.97C275.42 58.9 275.02 58.86 274.58 58.86C273.73 58.86 273.04 59.11 272.5 59.62C271.96 60.13 271.69 60.82 271.69 61.69V66.38C271.69 66.66 271.55 66.79 271.27 66.79H268.82C268.54 66.79 268.4 66.65 268.4 66.38V59.53C268.4 58.96 268.12 58.68 267.55 58.68C267.49 58.68 267.33 58.7 267.07 58.74C266.75 58.74 266.59 58.63 266.59 58.4V56.61C266.59 56.36 266.7 56.2 266.92 56.13C267.43 55.96 267.96 55.86 268.49 55.86C269.8 55.86 270.68 56.35 271.14 57.34C272.05 56.35 273.24 55.86 274.71 55.86C275.32 55.86 275.83 55.93 276.22 56.05" fill="white"/>
<path d="M282.76 63.65C283.29 64.18 283.99 64.45 284.85 64.45C285.71 64.45 286.41 64.18 286.94 63.65C287.47 63.12 287.73 62.41 287.73 61.52C287.73 60.63 287.46 59.92 286.94 59.38C286.41 58.85 285.71 58.58 284.85 58.58C283.99 58.58 283.29 58.85 282.76 59.38C282.23 59.92 281.97 60.63 281.97 61.52C281.97 62.41 282.24 63.12 282.76 63.65ZM289.22 65.6C288.12 66.64 286.66 67.15 284.85 67.15C283.04 67.15 281.59 66.63 280.48 65.6C279.38 64.57 278.83 63.21 278.83 61.52C278.83 59.83 279.38 58.45 280.48 57.42C281.58 56.39 283.04 55.87 284.85 55.87C286.66 55.87 288.11 56.39 289.22 57.42C290.32 58.46 290.87 59.82 290.87 61.52C290.87 63.22 290.32 64.57 289.22 65.6Z" fill="white"/>
<path d="M296.3 66.8C296.02 66.8 295.88 66.66 295.88 66.39V58.87H293.48C293.2 58.87 293.06 58.73 293.06 58.46V56.65C293.06 56.37 293.2 56.24 293.48 56.24H295.88V54.97C295.88 53.54 296.32 52.41 297.2 51.58C298.08 50.75 299.28 50.33 300.78 50.33C301.77 50.33 302.66 50.45 303.45 50.7C303.7 50.77 303.8 50.93 303.76 51.16L303.47 52.97C303.43 53.28 303.27 53.39 302.99 53.31C302.45 53.17 301.88 53.1 301.3 53.1C300.66 53.1 300.15 53.27 299.76 53.61C299.38 53.95 299.18 54.41 299.18 54.97V56.24H302.83C303.11 56.24 303.25 56.38 303.25 56.65V58.46C303.25 58.74 303.11 58.87 302.83 58.87H299.18V66.39C299.18 66.67 299.04 66.8 298.76 66.8H296.28H296.3Z" fill="white"/>
<path d="M307.52 66.8C307.24 66.8 307.1 66.66 307.1 66.39V56.64C307.1 56.36 307.24 56.23 307.52 56.23H309.97C310.25 56.23 310.39 56.37 310.39 56.64V66.39C310.39 66.67 310.25 66.8 309.97 66.8H307.52ZM310.13 53.75C309.76 54.1 309.3 54.27 308.74 54.27C308.18 54.27 307.72 54.1 307.35 53.75C306.97 53.4 306.79 52.98 306.79 52.47C306.79 51.96 306.98 51.54 307.35 51.2C307.72 50.86 308.19 50.69 308.74 50.69C309.29 50.69 309.75 50.86 310.13 51.2C310.51 51.54 310.69 51.96 310.69 52.47C310.69 52.98 310.5 53.4 310.13 53.75Z" fill="white"/>
<path d="M319.05 67.15C317.52 67.15 316.27 66.85 315.31 66.24C314.35 65.64 313.79 64.79 313.62 63.71C313.58 63.42 313.72 63.27 314.04 63.27L316.19 63.29C316.38 63.29 316.54 63.39 316.67 63.6C316.98 64.39 317.77 64.78 319.05 64.78C319.59 64.78 320.03 64.69 320.36 64.51C320.69 64.33 320.85 64.1 320.85 63.81C320.85 63.43 320.62 63.16 320.15 62.99C319.68 62.83 319.11 62.7 318.44 62.62C317.77 62.54 317.1 62.42 316.43 62.26C315.76 62.1 315.19 61.77 314.72 61.27C314.25 60.78 314.02 60.1 314.02 59.26C314.02 58.23 314.47 57.4 315.36 56.78C316.25 56.15 317.42 55.84 318.88 55.84C320.25 55.84 321.4 56.13 322.33 56.7C323.25 57.28 323.79 58.04 323.94 58.98C323.98 59.27 323.85 59.42 323.55 59.42H321.38C321.19 59.42 321.04 59.33 320.94 59.15C320.81 58.83 320.56 58.58 320.18 58.38C319.81 58.18 319.39 58.09 318.93 58.09C318.42 58.09 318 58.17 317.69 58.34C317.38 58.51 317.22 58.73 317.22 59.01C317.22 59.4 317.46 59.69 317.93 59.88C318.4 60.07 318.98 60.21 319.66 60.31C320.34 60.41 321.01 60.54 321.68 60.7C322.35 60.86 322.92 61.18 323.39 61.68C323.86 62.17 324.1 62.84 324.1 63.67C324.1 64.74 323.65 65.58 322.74 66.2C321.84 66.83 320.6 67.14 319.04 67.14" fill="white"/>
<path d="M332.23 67.15C330.7 67.15 329.45 66.85 328.49 66.24C327.53 65.64 326.97 64.79 326.8 63.71C326.76 63.42 326.89 63.27 327.22 63.27L329.37 63.29C329.56 63.29 329.72 63.39 329.85 63.6C330.16 64.39 330.95 64.78 332.23 64.78C332.77 64.78 333.21 64.69 333.54 64.51C333.87 64.33 334.03 64.1 334.03 63.81C334.03 63.43 333.8 63.16 333.33 62.99C332.86 62.83 332.29 62.7 331.62 62.62C330.95 62.54 330.28 62.42 329.61 62.26C328.94 62.1 328.37 61.77 327.9 61.27C327.43 60.78 327.2 60.1 327.2 59.26C327.2 58.23 327.65 57.4 328.54 56.78C329.43 56.15 330.6 55.84 332.06 55.84C333.43 55.84 334.58 56.13 335.51 56.7C336.43 57.28 336.97 58.04 337.12 58.98C337.16 59.27 337.03 59.42 336.73 59.42H334.56C334.37 59.42 334.22 59.33 334.12 59.15C333.99 58.83 333.74 58.58 333.36 58.38C332.99 58.18 332.57 58.09 332.11 58.09C331.6 58.09 331.18 58.17 330.87 58.34C330.56 58.51 330.4 58.73 330.4 59.01C330.4 59.4 330.64 59.69 331.11 59.88C331.58 60.07 332.16 60.21 332.84 60.31C333.52 60.41 334.19 60.54 334.86 60.7C335.53 60.86 336.1 61.18 336.57 61.68C337.04 62.17 337.28 62.84 337.28 63.67C337.28 64.74 336.83 65.58 335.92 66.2C335.02 66.83 333.78 67.14 332.22 67.14" fill="white"/>
<path d="M344.16 63.65C344.69 64.18 345.39 64.45 346.25 64.45C347.11 64.45 347.81 64.18 348.34 63.65C348.87 63.12 349.14 62.41 349.14 61.52C349.14 60.63 348.87 59.92 348.34 59.38C347.81 58.85 347.11 58.58 346.25 58.58C345.39 58.58 344.69 58.85 344.16 59.38C343.63 59.92 343.37 60.63 343.37 61.52C343.37 62.41 343.64 63.12 344.16 63.65ZM350.61 65.6C349.51 66.64 348.05 67.15 346.24 67.15C344.43 67.15 342.98 66.63 341.87 65.6C340.77 64.57 340.22 63.21 340.22 61.52C340.22 59.83 340.77 58.45 341.87 57.42C342.97 56.39 344.43 55.87 346.24 55.87C348.05 55.87 349.5 56.39 350.61 57.42C351.71 58.46 352.26 59.82 352.26 61.52C352.26 63.22 351.71 64.57 350.61 65.6ZM347.78 54.48C347.21 54.48 346.63 54.31 346.04 53.96C345.45 53.61 345.08 53.44 344.91 53.44C344.67 53.44 344.52 53.55 344.45 53.78C344.31 54.03 344.16 54.15 344.01 54.15H342.35C342.06 54.15 341.93 54.01 341.96 53.73C342.03 52.93 342.31 52.29 342.79 51.82C343.27 51.35 343.9 51.11 344.68 51.11C345.26 51.11 345.85 51.28 346.43 51.64C347.01 51.99 347.38 52.17 347.55 52.17C347.79 52.17 347.95 52.04 348.03 51.8C348.12 51.57 348.26 51.45 348.45 51.45H350.12C350.41 51.45 350.54 51.59 350.51 51.87C350.44 52.67 350.16 53.31 349.66 53.78C349.17 54.25 348.55 54.49 347.79 54.49" fill="white"/>
<path d="M358.42 60.6H363.65C363.62 59.92 363.38 59.36 362.93 58.93C362.48 58.5 361.89 58.29 361.16 58.29C360.43 58.29 359.84 58.5 359.33 58.93C358.83 59.36 358.52 59.92 358.42 60.6ZM361.27 67.15C359.47 67.15 358.02 66.63 356.92 65.6C355.81 64.57 355.26 63.21 355.26 61.52C355.26 59.83 355.8 58.45 356.87 57.42C357.94 56.39 359.35 55.87 361.09 55.87C362.83 55.87 364.23 56.38 365.25 57.4C366.28 58.42 366.79 59.76 366.79 61.43C366.79 61.52 366.79 61.64 366.78 61.8C366.78 61.96 366.78 62.09 366.78 62.17C366.74 62.42 366.58 62.54 366.32 62.54H358.46C358.64 63.19 358.99 63.71 359.5 64.09C360.01 64.46 360.63 64.65 361.34 64.65C362.15 64.65 362.74 64.44 363.13 64C363.32 63.86 363.5 63.79 363.66 63.78H366.12C366.28 63.78 366.4 63.82 366.46 63.9C366.52 63.98 366.52 64.09 366.46 64.21C366.08 65.11 365.43 65.82 364.51 66.35C363.59 66.87 362.52 67.14 361.28 67.14" fill="white"/>
<path d="M374.95 67.15C373.42 67.15 372.17 66.85 371.21 66.24C370.25 65.64 369.69 64.79 369.52 63.71C369.48 63.42 369.61 63.27 369.94 63.27L372.09 63.29C372.28 63.29 372.44 63.39 372.57 63.6C372.88 64.39 373.67 64.78 374.95 64.78C375.49 64.78 375.93 64.69 376.26 64.51C376.59 64.33 376.75 64.1 376.75 63.81C376.75 63.43 376.52 63.16 376.05 62.99C375.58 62.83 375.01 62.7 374.34 62.62C373.67 62.54 373 62.42 372.33 62.26C371.66 62.1 371.09 61.77 370.62 61.27C370.15 60.78 369.92 60.1 369.92 59.26C369.92 58.23 370.37 57.4 371.26 56.78C372.15 56.15 373.32 55.84 374.78 55.84C376.15 55.84 377.3 56.13 378.23 56.7C379.15 57.28 379.69 58.04 379.84 58.98C379.88 59.27 379.75 59.42 379.45 59.42H377.28C377.09 59.42 376.94 59.33 376.84 59.15C376.71 58.83 376.46 58.58 376.08 58.38C375.71 58.18 375.29 58.09 374.83 58.09C374.32 58.09 373.9 58.17 373.59 58.34C373.28 58.51 373.12 58.73 373.12 59.01C373.12 59.4 373.36 59.69 373.83 59.88C374.3 60.07 374.88 60.21 375.56 60.31C376.24 60.41 376.91 60.54 377.58 60.7C378.25 60.86 378.82 61.18 379.29 61.68C379.76 62.17 380 62.84 380 63.67C380 64.74 379.55 65.58 378.64 66.2C377.74 66.83 376.5 67.14 374.94 67.14" fill="white"/>
<path d="M203.58 61.09L209.21 65.17V68.87C209.21 73.92 213.31 78.01 218.38 78.01H234.37C239.43 78.01 243.54 73.92 243.54 68.87V53.32C243.54 48.27 239.44 44.18 234.37 44.18H218.38C213.32 44.18 209.21 48.27 209.21 53.32V57.02L203.58 61.1V61.09Z" fill="#F7B713"/>
<path fill-rule="evenodd" clip-rule="evenodd" d="M226.53 52.15C231.48 52.15 235.49 56.15 235.49 61.08C235.49 66.01 231.48 70.01 226.53 70.01C221.58 70.01 217.57 66.01 217.57 61.08C217.57 56.15 221.58 52.15 226.53 52.15ZM230.02 61.61L225.14 64.47C225.05 64.52 224.94 64.55 224.84 64.55C224.74 64.55 224.64 64.52 224.55 64.47C224.36 64.36 224.25 64.16 224.25 63.94V58.23C224.25 58.01 224.37 57.81 224.55 57.7C224.73 57.6 224.96 57.6 225.14 57.7L230.02 60.56C230.2 60.67 230.32 60.87 230.32 61.08C230.32 61.3 230.21 61.5 230.02 61.6" fill="#E42170"/>
</g>
<defs>
<clipPath id="clip0_28_1314">
<rect width="380" height="78" fill="white"/>
</clipPath>
</defs>
</svg>
