<svg width="200" height="34" viewBox="0 0 200 34" fill="none" xmlns="http://www.w3.org/2000/svg">
<g clip-path="url(#clip0_25_1278)">
<path d="M15.6094 14.5643L18.7231 22.4792H12.4349L15.5993 14.5643H15.6094ZM11.9193 5.41394L0 33.4476H8.16863L10.1703 28.4757H20.9675L23.0097 33.4476H31.3299L19.4106 5.41394H11.9294H11.9193Z" fill="white"/>
<path d="M69.302 27.2803V27.2C69.302 22.7504 72.709 20.4402 77.784 20.4402C79.5532 20.4402 81.3022 20.7214 82.9804 21.2738V20.9122C82.9804 18.6824 81.5752 17.4168 78.6636 17.4168C76.6113 17.4168 74.5894 17.8186 72.6989 18.6121L71.142 13.2886C73.912 12.1335 76.8944 11.561 79.9071 11.6213C83.7892 11.6213 86.4278 12.5353 88.1465 14.2428C89.7842 15.8399 90.4717 18.0597 90.4717 21.083V33.4475H82.9501V31.2177C81.3325 33.0156 79.0073 34 76.5911 33.9196C72.4663 33.9196 69.302 31.5693 69.302 27.2803ZM83.0714 25.6532V24.6588C82.1312 24.2871 81.1202 24.1063 80.1093 24.1063C77.9053 24.1063 76.6315 25.1811 76.6315 26.7681V26.8484C76.6315 28.3149 77.7537 29.1888 79.3106 29.1888C81.5145 29.1888 83.0714 27.7926 83.0714 25.6532Z" fill="white"/>
<path d="M93.2014 11.9427V17.9392H102.846L92.8374 28.4757L94.182 33.4476H112.925V27.4411H102.886L112.925 16.9046L111.571 11.9427H93.2014Z" fill="white"/>
<path d="M113.886 22.7906V22.7102C113.886 16.4325 118.405 11.4606 124.814 11.4606C132.295 11.4606 135.733 16.9046 135.733 23.2325C135.733 23.7046 135.733 24.2671 135.692 24.7793H121.205C121.65 26.9589 123.662 28.4656 125.886 28.3149C127.726 28.2848 129.465 27.4913 130.688 26.1253L134.883 29.5805C132.649 32.4632 129.141 34.0904 125.481 33.9498C118.678 33.9498 113.875 29.46 113.875 22.7805M128.615 20.9223C128.332 18.5418 126.937 17.0251 124.855 17.0251C122.772 17.0251 121.498 18.5719 121.094 20.9223H128.615Z" fill="white"/>
<path d="M139.544 26.7681V18.0195H136.986V11.9327H139.544V8.57786L147.147 6.48865V11.9327H152.181V18.0195H147.147V25.2916C147.147 26.8083 147.824 27.4411 149.229 27.4411C150.23 27.421 151.221 27.1799 152.11 26.7279V32.6541C150.483 33.5079 148.663 33.9297 146.823 33.8895C142.264 33.8895 139.544 31.9008 139.544 26.7782" fill="white"/>
<path d="M153.627 27.2804V27.2C153.627 22.7504 157.034 20.4402 162.109 20.4402C163.878 20.4402 165.637 20.7214 167.315 21.2739V20.9123C167.315 18.6824 165.91 17.4169 162.989 17.4169C160.946 17.4169 158.914 17.8186 157.024 18.6121L155.467 13.2786C158.237 12.1235 161.229 11.561 164.232 11.6112C168.114 11.6112 170.753 12.5253 172.471 14.2328C174.109 15.8299 174.797 18.0496 174.797 21.073V33.4375H167.275V31.2077C165.668 33.0056 163.332 33.99 160.916 33.9096C156.791 33.9096 153.627 31.5592 153.627 27.2703M167.396 25.6532V24.6588C166.456 24.2872 165.445 24.1064 164.434 24.1064C162.23 24.1064 160.956 25.1811 160.956 26.7681V26.8485C160.956 28.3149 162.079 29.1888 163.636 29.1888C165.839 29.1888 167.396 27.7926 167.396 25.6532Z" fill="white"/>
<path d="M59.4955 19.486V26.2056C58.1509 27.0292 56.594 27.431 55.0169 27.3607C50.5788 27.3607 47.4144 24.1465 47.4144 19.6467V19.5663C47.4144 15.3075 50.5383 11.9326 54.5721 11.9326C57.0793 11.9226 59.4955 12.8567 61.3355 14.5542L65.8949 9.11018C62.7711 6.36809 58.707 4.91166 54.5317 5.05228C45.8474 5.05228 39.448 11.4103 39.448 19.5261V19.6065C39.448 28.0337 45.9687 34 54.6934 34C59.1316 34.0301 63.4383 32.5134 66.8554 29.701V19.486H59.4955Z" fill="white"/>
<path d="M200 11.0086C200 4.92171 195.036 0 188.92 0C182.803 0 177.84 4.93176 177.84 11.0086C177.84 17.0854 182.803 22.0171 188.92 22.0171C192.256 22.0171 195.41 20.5306 197.523 17.9492C196.674 17.4068 196.431 16.2919 196.967 15.4482C197.473 14.6647 198.494 14.3935 199.323 14.8053C199.778 13.59 200.01 12.2942 200.01 10.9985M195.077 16.101C194.915 16.3019 194.733 16.4928 194.551 16.6736C191.397 19.7973 186.301 19.7973 183.147 16.6736C180.003 13.5397 180.003 8.4774 183.147 5.34358C186.291 2.21979 191.397 2.21979 194.541 5.34358L191.963 7.90487C190.244 6.19734 187.444 6.19734 185.725 7.90487C184.007 9.61241 184.007 12.3846 185.725 14.1022C187.252 15.6189 189.668 15.8097 191.427 14.5542V11.0086H195.067V16.091L195.077 16.101Z" fill="white"/>
<path d="M198.494 17.3767C199.009 17.3767 199.434 16.9548 199.434 16.4425C199.434 15.9303 199.009 15.5084 198.494 15.5084C197.978 15.5084 197.553 15.9303 197.553 16.4425C197.553 16.9548 197.978 17.3767 198.494 17.3767Z" fill="white"/>
</g>
<defs>
<clipPath id="clip0_25_1278">
<rect width="200" height="34" fill="white"/>
</clipPath>
</defs>
</svg>
