<svg width="335" height="43" viewBox="0 0 335 43" fill="none" xmlns="http://www.w3.org/2000/svg">
<g clip-path="url(#clip0_40_3886)">
<path d="M37.0317 9.07963V14.1569H37.0373C37.0373 15.3808 36.0425 16.3731 34.8267 16.3731C33.6109 16.3731 32.6107 15.3808 32.6107 14.1569H32.6162V7.76758H29.9912V14.1569C29.9912 16.8307 32.152 19.0082 34.8267 19.0082C37.5015 19.0082 39.6567 16.8362 39.6567 14.1569V9.07412C39.6512 8.35194 39.0654 7.76758 38.3415 7.76758C37.6175 7.76758 37.0317 8.35194 37.0262 9.07963" fill="white"/>
<path d="M29.1844 16.8031C28.7257 16.77 28.4218 16.6156 28.2781 16.351C28.1123 16.0478 28.0239 15.6619 28.0239 15.1988V2.16101L25.4707 2.64063V8.77088C24.5533 8.1314 23.4425 7.75652 22.2433 7.75652C19.1154 7.75652 16.5789 10.2979 16.5789 13.4347C16.5789 16.5715 19.1154 19.1129 22.2433 19.1129C23.2325 19.1129 24.1665 18.8593 24.9789 18.4073C25.0452 18.3742 25.1115 18.3411 25.1778 18.3025C25.4431 18.1372 25.6918 17.9552 25.9239 17.7568L25.9625 17.8119C26.2168 18.1592 26.5594 18.4238 26.996 18.6223C27.427 18.8152 27.9907 18.909 28.687 18.909C28.8418 18.909 29.0462 18.909 29.2507 18.8924C29.2562 18.8924 29.2673 18.8924 29.2728 18.8869C29.8033 18.8373 30.2178 18.3908 30.2178 17.845C30.2178 17.2992 29.7646 16.8086 29.1954 16.7975M22.2378 10.309C23.7244 10.309 24.9678 11.3509 25.2828 12.7456C25.3546 13.2363 25.3381 13.5946 25.2883 14.1073C24.9844 15.5131 23.7354 16.5715 22.2378 16.5715C18.176 16.5715 18.187 10.309 22.2378 10.309Z" fill="white"/>
<path d="M48.2888 16.2793C48.1562 16.3841 48.0125 16.4723 47.8578 16.5605C47.471 16.7645 47.0067 16.8747 46.4762 16.8747C45.9457 16.8747 45.4815 16.7645 45.1002 16.5605C44.7133 16.351 44.3928 16.0864 44.1441 15.7556C43.8899 15.4304 43.702 15.0555 43.5749 14.642C43.4533 14.2231 43.387 13.8041 43.387 13.3961C43.387 12.9882 43.4533 12.5637 43.5749 12.1557C43.7075 11.7533 43.8899 11.3839 44.1441 11.0532C44.3928 10.7279 44.7133 10.4633 45.1002 10.2648C45.4815 10.0609 45.9457 9.96164 46.4762 9.96164C47.0067 9.96164 47.471 10.0664 47.8578 10.2648C48.2391 10.4578 48.5652 10.7279 48.8138 11.0532L48.9023 11.1965L50.527 9.26151C50.0241 8.79844 49.4328 8.43459 48.742 8.181C48.0346 7.91087 47.2831 7.77856 46.4762 7.77856C45.6694 7.77856 44.9233 7.91639 44.2104 8.181C43.4975 8.45113 42.8841 8.826 42.3646 9.31664C41.8452 9.80728 41.4307 10.4027 41.1267 11.0918C40.8228 11.7864 40.6736 12.5472 40.6736 13.4016C40.6736 14.2561 40.8228 15.0169 41.1267 15.717C41.4307 16.4172 41.8452 17.0181 42.3646 17.5142C42.8841 18.0104 43.4975 18.4018 44.2104 18.6829C44.9233 18.9641 45.6804 19.1074 46.4762 19.1074C47.272 19.1074 48.0402 18.9641 48.742 18.6829C49.0902 18.5451 49.4107 18.3852 49.7091 18.1923C50.0738 17.9883 50.317 17.5969 50.317 17.1448C50.317 16.4833 49.781 15.9431 49.1178 15.9431C48.7917 15.9431 48.4988 16.0698 48.2833 16.2793" fill="white"/>
<path d="M60.0877 12.4976C60.0877 9.68602 59.1316 7.77307 55.7495 7.77307C55.44 7.77307 54.2519 7.77307 53.2958 7.77307C51.6379 7.77307 51.6379 10.4247 53.2958 10.4247C53.9479 10.4247 54.6001 10.4247 55.2522 10.4247C56.4569 10.4247 57.4461 10.6287 57.4627 11.8801C46.0785 11.8801 50.9858 22.2442 58.5293 17.9553C59.2698 18.727 60.3308 18.9861 61.4803 18.909V16.7369C60.2369 16.7094 60.0158 15.4965 60.0158 14.3003C60.0158 13.6222 60.0877 12.9496 60.0877 12.4976ZM57.6119 16.136C53.3069 18.6719 50.8753 13.9254 57.4737 13.9254C57.424 14.7909 57.4737 15.5186 57.6119 16.136Z" fill="white"/>
<path d="M12.4617 12.0786H10.0412C8.23963 12.0786 8.23963 14.8295 10.0412 14.8295H12.4617C17.0873 14.8295 17.0873 7.76758 12.4617 7.76758H10.3838C2.31542 7.76758 2.73542 19.1019 10.0578 19.1019H15.9765V16.3951H10.0578C6.21148 16.3951 6.1949 10.524 10.0578 10.524H12.3181C12.3181 10.4689 13.252 10.5074 13.252 11.3068C13.252 11.7478 12.8983 12.0896 12.4617 12.0896" fill="white"/>
<path fill-rule="evenodd" clip-rule="evenodd" d="M65.1885 17.8229C65.1719 18.5341 64.5916 19.1019 63.8787 19.1019C63.1658 19.1019 62.5635 18.512 62.5635 17.7843V12.6298C62.5635 9.9451 64.7243 7.77856 67.399 7.77856C67.9019 7.77856 68.4048 7.78408 68.7585 7.7951V10.2924H67.399C66.1777 10.2979 65.1885 11.406 65.1885 12.6298V17.8229Z" fill="white"/>
<path d="M90.7863 15.491C90.7863 16.0754 90.6702 16.6046 90.4547 17.0456C90.2391 17.4977 89.9186 17.8725 89.5097 18.1647C89.1173 18.4569 88.6476 18.6664 88.1226 18.8042C87.5865 18.9475 86.9952 19.0082 86.1497 19.0082H81.911V16.3014H86.3984C86.6857 16.3014 87.8794 16.2904 87.8794 15.4745C87.8794 14.7854 86.2491 14.7302 85.9452 14.6751C85.7297 14.6365 85.4976 14.6034 85.2268 14.5483C84.9394 14.4932 84.6355 14.4215 84.337 14.3278C84.022 14.2341 83.7126 14.1128 83.4086 13.9639C83.0826 13.7986 82.7897 13.5946 82.5299 13.3465C82.2647 13.0984 82.0491 12.7842 81.8889 12.4369C81.7231 12.0841 81.6402 11.6651 81.6402 11.202C81.6402 10.535 81.7894 9.95613 82.0768 9.49856C82.3642 9.05202 82.7289 8.69369 83.171 8.42908C83.5965 8.18651 84.0718 8.00459 84.5857 7.90536C85.061 7.81715 85.586 7.76202 86.1497 7.76202H88.841C89.5815 7.76202 90.1839 8.37395 90.1839 9.11818C90.1839 9.86241 89.5815 10.4688 88.841 10.4743H85.8457C85.7297 10.4798 84.5526 10.3916 84.5526 11.1193C84.5526 11.847 86.2381 11.9187 87.1057 12.0455C87.382 12.0841 87.8076 12.1668 88.106 12.255C88.4155 12.3377 88.7305 12.4589 89.0344 12.6133C89.3605 12.7622 89.6534 12.9661 89.902 13.2197C90.1673 13.4788 90.3773 13.7986 90.5431 14.1624C90.7034 14.5318 90.7863 14.9783 90.7863 15.491ZM76.9207 12.0786H74.5002C72.6986 12.0786 72.6986 14.8295 74.5002 14.8295H76.9207C81.5463 14.8295 81.5463 7.76754 76.9207 7.76754H74.8428C66.7744 7.76754 67.1944 19.1019 74.5168 19.1019H80.4355V16.3951H74.5168C70.6705 16.3951 70.6539 10.5239 74.5168 10.5239H76.777C76.777 10.4688 77.711 10.5074 77.711 11.3068C77.711 11.7478 77.3573 12.0896 76.9207 12.0896" fill="white"/>
<path d="M0 25.8V5.19859C0 2.33192 2.32658 0 5.18368 0H90.0513C92.9084 0 95.235 2.33192 95.235 5.19859V16.4117C95.235 19.2783 92.9084 21.6103 90.0513 21.6103H11.4008C11.34 21.6103 5.565 21.6103 5.16158 21.6103L0 25.8ZM90.0513 0.121282H5.18368C2.39289 0.121282 0.121579 2.39808 0.121579 5.19859V25.5464L5.11737 21.489H5.13947C5.17816 21.489 11.34 21.489 11.4008 21.489H90.0513C92.8421 21.489 95.1134 19.2122 95.1134 16.4117V5.19859C95.1134 2.39808 92.8421 0.121282 90.0513 0.121282Z" fill="white"/>
<path d="M110.449 17.9443C111.654 17.9443 112.632 17.5143 113.383 16.6708C114.135 15.8273 114.511 14.7413 114.511 13.4127C114.511 12.0841 114.135 10.9705 113.383 10.1326C112.632 9.29464 111.654 8.87016 110.449 8.87016C109.244 8.87016 108.216 9.29464 107.448 10.1326C106.674 10.9705 106.288 12.0676 106.288 13.4127C106.288 14.7578 106.674 15.8218 107.448 16.6708C108.216 17.5143 109.217 17.9443 110.449 17.9443ZM122.447 20.629C122.491 20.9984 122.319 21.2244 121.927 21.3016C121.043 21.5662 120.247 21.6985 119.518 21.6985C117.545 21.6985 116.191 21.048 115.456 19.7359C113.958 21.048 112.145 21.6985 110.029 21.6985C107.531 21.6985 105.492 20.9267 103.917 19.3886C102.342 17.845 101.552 15.8549 101.552 13.4127C101.552 10.9705 102.342 8.94734 103.922 7.41477C105.503 5.88221 107.542 5.11041 110.029 5.11041C111.814 5.11041 113.339 5.60105 114.61 6.58785V6.24054C114.61 5.83259 114.815 5.62862 115.224 5.62862H118.788C119.197 5.62862 119.396 5.83259 119.385 6.24054V16.3125C119.385 17.1449 119.739 17.5639 120.457 17.5639C120.844 17.5639 121.175 17.5253 121.452 17.4591C121.883 17.415 122.109 17.5859 122.132 17.9718L122.458 20.6345L122.447 20.629Z" fill="#F7B713"/>
<path d="M140.087 5.39706C140.451 5.47975 140.617 5.71129 140.573 6.1027L140.147 9.18988C140.081 9.57578 139.849 9.73565 139.44 9.67501C138.904 9.57026 138.318 9.51514 137.677 9.51514C136.423 9.51514 135.406 9.89001 134.61 10.6398C133.809 11.384 133.411 12.3983 133.411 13.6883V20.5794C133.411 20.9873 133.206 21.1913 132.797 21.1913H129.189C128.78 21.1913 128.57 20.9873 128.57 20.5794V10.5074C128.57 9.67501 128.15 9.25603 127.31 9.25603C127.221 9.25603 126.995 9.2836 126.602 9.34424C126.127 9.34424 125.895 9.17886 125.895 8.84257V6.21296C125.895 5.84911 126.061 5.61206 126.387 5.50732C127.144 5.24821 127.912 5.11591 128.702 5.11591C130.631 5.11591 131.935 5.8436 132.604 7.29347C133.941 5.8436 135.693 5.11591 137.865 5.11591C138.766 5.11591 139.512 5.20962 140.087 5.39706Z" fill="#F7B713"/>
<path d="M148.641 12.0676H156.345C156.301 11.0643 155.947 10.2484 155.278 9.61439C154.61 8.98593 153.748 8.66618 152.67 8.66618C151.592 8.66618 150.725 8.98041 149.979 9.61439C149.238 10.2484 148.791 11.0643 148.641 12.0676ZM152.836 21.6985C150.183 21.6985 148.05 20.9377 146.42 19.4162C144.784 17.9002 143.966 15.899 143.966 13.4127C143.966 10.9264 144.756 8.89772 146.337 7.38169C147.917 5.87118 149.984 5.11041 152.548 5.11041C155.113 5.11041 157.174 5.86016 158.688 7.35964C160.202 8.85362 160.954 10.8272 160.954 13.2804C160.954 13.4072 160.954 13.5891 160.937 13.8317C160.937 14.0743 160.926 14.2562 160.926 14.3775C160.86 14.7468 160.633 14.9287 160.247 14.9287H148.669C148.934 15.8935 149.443 16.6432 150.205 17.2C150.962 17.7513 151.874 18.027 152.919 18.027C154.107 18.027 154.986 17.7127 155.566 17.0677C155.853 16.8582 156.107 16.7535 156.339 16.7425H159.965C160.208 16.7425 160.374 16.8031 160.468 16.9244C160.562 17.0402 160.562 17.1945 160.468 17.382C159.909 18.705 158.953 19.758 157.599 20.5298C156.246 21.3016 154.659 21.6875 152.83 21.6875" fill="#F7B713"/>
<path d="M177.234 5.11041C179.345 5.11041 181.048 5.75541 182.33 7.05093C183.612 8.35195 184.258 10.0664 184.258 12.2054V20.5739C184.258 20.9818 184.054 21.1858 183.645 21.1858H180.036C179.605 21.1858 179.39 20.9818 179.39 20.5739V12.8504C179.39 11.7644 179.086 10.8878 178.467 10.2208C177.853 9.55375 177.03 9.22298 176.008 9.22298C174.985 9.22298 174.073 9.53721 173.405 10.1712C172.741 10.7996 172.415 11.6431 172.415 12.685V20.5794C172.415 20.9873 172.211 21.1913 171.802 21.1913H168.193C167.784 21.1913 167.574 20.9873 167.574 20.5794V10.5075C167.574 9.67503 167.154 9.25605 166.314 9.25605C166.226 9.25605 165.999 9.28362 165.607 9.34426C165.132 9.34426 164.9 9.17887 164.9 8.84259V6.21298C164.9 5.84913 165.065 5.61208 165.391 5.50734C166.055 5.24823 166.828 5.11593 167.707 5.11593C169.558 5.11593 170.846 5.78849 171.581 7.13913C172.946 5.794 174.825 5.11593 177.229 5.11593" fill="#F7B713"/>
<path d="M197.997 17.9443C199.201 17.9443 200.18 17.5143 200.931 16.6708C201.683 15.8273 202.059 14.7413 202.059 13.4127C202.059 12.0841 201.683 10.9705 200.931 10.1326C200.18 9.29464 199.201 8.87016 197.997 8.87016C196.792 8.87016 195.764 9.29464 194.996 10.1326C194.222 10.9705 193.835 12.0676 193.835 13.4127C193.835 14.7578 194.222 15.8218 194.996 16.6708C195.764 17.5143 196.764 17.9443 197.997 17.9443ZM209.994 20.629C210.039 20.9984 209.867 21.2244 209.475 21.3016C208.591 21.5662 207.795 21.6985 207.065 21.6985C205.093 21.6985 203.739 21.048 203.004 19.7359C201.506 21.048 199.693 21.6985 197.577 21.6985C195.079 21.6985 193.04 20.9267 191.465 19.3886C189.89 17.845 189.099 15.8549 189.099 13.4127C189.099 10.9705 189.89 8.94734 191.47 7.41477C193.051 5.88221 195.09 5.11041 197.577 5.11041C199.362 5.11041 200.887 5.60105 202.158 6.58785V6.24054C202.158 5.83259 202.363 5.62862 202.771 5.62862H206.336C206.745 5.62862 206.944 5.83259 206.933 6.24054V16.3125C206.933 17.1449 207.286 17.5639 208.005 17.5639C208.392 17.5639 208.723 17.5253 209 17.4591C209.431 17.415 209.657 17.5859 209.679 17.9718L210.005 20.6345L209.994 20.629Z" fill="#F7B713"/>
<path d="M141.424 35.1332C141.711 35.4474 142.082 35.6128 142.529 35.6128C142.977 35.6128 143.353 35.4529 143.646 35.1332C143.944 34.819 144.088 34.411 144.088 33.9149C144.088 33.4187 143.938 32.9997 143.646 32.6855C143.353 32.3713 142.977 32.2114 142.529 32.2114C142.082 32.2114 141.711 32.3713 141.424 32.6855C141.137 32.9997 140.993 33.4132 140.993 33.9149C140.993 34.4165 141.137 34.819 141.424 35.1332ZM142.673 30.8001C143.618 30.8001 144.386 31.0868 144.977 31.6656C145.569 32.2445 145.867 32.9942 145.867 33.9149C145.867 34.8355 145.569 35.5742 144.977 36.1531C144.386 36.7319 143.618 37.0241 142.673 37.0241C142.026 37.0241 141.468 36.8532 140.987 36.5059V39.4001C140.987 39.5434 140.91 39.6206 140.755 39.6206H139.401C139.247 39.6206 139.169 39.549 139.169 39.4001V32.8233C139.169 32.5091 139.014 32.3547 138.699 32.3547C138.666 32.3547 138.578 32.3658 138.434 32.3878C138.257 32.3878 138.169 32.3272 138.169 32.2004V31.2136C138.169 31.0758 138.23 30.9875 138.351 30.949C138.6 30.8552 138.887 30.8001 139.219 30.8001C139.926 30.8001 140.418 31.0592 140.683 31.5719C141.208 31.0592 141.866 30.8001 142.667 30.8001" fill="white"/>
<path d="M152.648 30.9049C152.786 30.9324 152.847 31.0206 152.83 31.1695L152.67 32.3272C152.648 32.4705 152.56 32.5312 152.405 32.5091C152.206 32.4705 151.985 32.4485 151.742 32.4485C151.272 32.4485 150.891 32.5863 150.592 32.8674C150.294 33.1486 150.145 33.529 150.145 34.0086V36.5941C150.145 36.7485 150.067 36.8201 149.912 36.8201H148.559C148.404 36.8201 148.326 36.7429 148.326 36.5941V32.8178C148.326 32.5036 148.172 32.3492 147.857 32.3492C147.824 32.3492 147.735 32.3603 147.591 32.3823C147.415 32.3823 147.326 32.3217 147.326 32.1949V31.2081C147.326 31.0703 147.387 30.9821 147.509 30.9435C147.79 30.8497 148.083 30.7946 148.376 30.7946C149.1 30.7946 149.586 31.0647 149.841 31.6105C150.344 31.0647 151.001 30.7946 151.814 30.7946C152.151 30.7946 152.432 30.8332 152.648 30.8994" fill="white"/>
<path d="M156.262 35.0891C156.555 35.3813 156.942 35.5301 157.417 35.5301C157.892 35.5301 158.279 35.3813 158.572 35.0891C158.865 34.7969 159.009 34.4055 159.009 33.9149C159.009 33.4242 158.86 33.0328 158.572 32.7351C158.279 32.4429 157.892 32.2941 157.417 32.2941C156.942 32.2941 156.555 32.4429 156.262 32.7351C155.969 33.0328 155.826 33.4242 155.826 33.9149C155.826 34.4055 155.975 34.7969 156.262 35.0891ZM159.832 36.1641C159.224 36.7374 158.417 37.0186 157.417 37.0186C156.417 37.0186 155.616 36.7319 155.002 36.1641C154.394 35.5963 154.09 34.8465 154.09 33.9149C154.09 32.9832 154.394 32.2224 155.002 31.6546C155.61 31.0868 156.417 30.8001 157.417 30.8001C158.417 30.8001 159.219 31.0868 159.832 31.6546C160.44 32.2279 160.744 32.9777 160.744 33.9149C160.744 34.852 160.44 35.5963 159.832 36.1641Z" fill="white"/>
<path d="M163.745 36.8256C163.59 36.8256 163.513 36.7485 163.513 36.5996V32.454H162.186C162.031 32.454 161.954 32.3768 161.954 32.228V31.2301C161.954 31.0758 162.031 31.0041 162.186 31.0041H163.513V30.304C163.513 29.5156 163.756 28.8927 164.242 28.4351C164.728 27.9776 165.391 27.746 166.22 27.746C166.768 27.746 167.259 27.8122 167.696 27.95C167.834 27.9886 167.889 28.0768 167.867 28.2036L167.707 29.2014C167.685 29.3723 167.596 29.433 167.442 29.3889C167.143 29.3117 166.828 29.2731 166.508 29.2731C166.154 29.2731 165.872 29.3668 165.657 29.5542C165.447 29.7417 165.336 29.9953 165.336 30.304V31.0041H167.353C167.508 31.0041 167.585 31.0813 167.585 31.2301V32.228C167.585 32.3823 167.508 32.454 167.353 32.454H165.336V36.5996C165.336 36.754 165.259 36.8256 165.104 36.8256H163.734H163.745Z" fill="white"/>
<path d="M169.945 36.8256C169.79 36.8256 169.713 36.7484 169.713 36.5996V31.2246C169.713 31.0702 169.79 30.9986 169.945 30.9986H171.299C171.454 30.9986 171.531 31.0757 171.531 31.2246V36.5996C171.531 36.7539 171.454 36.8256 171.299 36.8256H169.945ZM171.388 29.6314C171.183 29.8243 170.929 29.918 170.619 29.918C170.31 29.918 170.056 29.8243 169.851 29.6314C169.641 29.4384 169.542 29.2069 169.542 28.9257C169.542 28.6446 169.647 28.413 169.851 28.2256C170.056 28.0382 170.315 27.9445 170.619 27.9445C170.923 27.9445 171.178 28.0382 171.388 28.2256C171.598 28.413 171.697 28.6446 171.697 28.9257C171.697 29.2069 171.592 29.4384 171.388 29.6314Z" fill="white"/>
<path d="M176.317 37.0186C175.472 37.0186 174.781 36.8532 174.25 36.5169C173.72 36.1861 173.41 35.7175 173.316 35.1222C173.294 34.9623 173.372 34.8796 173.549 34.8796L174.737 34.8906C174.842 34.8906 174.93 34.9457 175.002 35.0615C175.173 35.497 175.61 35.712 176.317 35.712C176.616 35.712 176.859 35.6624 177.041 35.5632C177.224 35.464 177.312 35.3372 177.312 35.1773C177.312 34.9678 177.185 34.819 176.925 34.7252C176.665 34.637 176.35 34.5654 175.98 34.5213C175.61 34.4772 175.24 34.411 174.869 34.3228C174.499 34.2346 174.184 34.0527 173.924 33.777C173.665 33.5069 173.537 33.132 173.537 32.669C173.537 32.1011 173.786 31.6436 174.278 31.3018C174.77 30.9545 175.416 30.7836 176.223 30.7836C176.98 30.7836 177.616 30.9434 178.13 31.2577C178.638 31.5774 178.937 31.9964 179.02 32.5146C179.042 32.6745 178.97 32.7572 178.804 32.7572H177.605C177.5 32.7572 177.417 32.7075 177.362 32.6083C177.29 32.4319 177.152 32.2941 176.942 32.1838C176.737 32.0736 176.505 32.024 176.251 32.024C175.969 32.024 175.737 32.0681 175.566 32.1618C175.394 32.2555 175.306 32.3768 175.306 32.5311C175.306 32.7461 175.439 32.906 175.698 33.0107C175.958 33.1155 176.279 33.1927 176.654 33.2478C177.03 33.3029 177.4 33.3746 177.771 33.4628C178.141 33.551 178.456 33.7274 178.716 34.0031C178.975 34.2732 179.108 34.6425 179.108 35.1001C179.108 35.69 178.859 36.1531 178.356 36.4948C177.859 36.8422 177.174 37.0131 176.312 37.0131" fill="white"/>
<path d="M183.601 37.0186C182.755 37.0186 182.065 36.8532 181.534 36.5169C181.003 36.1861 180.694 35.7175 180.6 35.1222C180.578 34.9623 180.65 34.8796 180.832 34.8796L182.02 34.8906C182.125 34.8906 182.214 34.9457 182.286 35.0615C182.457 35.497 182.893 35.712 183.601 35.712C183.899 35.712 184.142 35.6624 184.325 35.5632C184.507 35.464 184.596 35.3372 184.596 35.1773C184.596 34.9678 184.468 34.819 184.209 34.7252C183.949 34.637 183.634 34.5654 183.264 34.5213C182.893 34.4772 182.523 34.411 182.153 34.3228C181.783 34.2346 181.468 34.0527 181.208 33.777C180.948 33.5069 180.821 33.132 180.821 32.669C180.821 32.1011 181.07 31.6436 181.562 31.3018C182.053 30.9545 182.7 30.7836 183.507 30.7836C184.264 30.7836 184.9 30.9434 185.413 31.2577C185.922 31.5774 186.22 31.9964 186.303 32.5146C186.325 32.6745 186.253 32.7572 186.088 32.7572H184.888C184.783 32.7572 184.701 32.7075 184.645 32.6083C184.573 32.4319 184.435 32.2941 184.225 32.1838C184.021 32.0736 183.789 32.024 183.535 32.024C183.253 32.024 183.021 32.0681 182.849 32.1618C182.678 32.2555 182.59 32.3768 182.59 32.5311C182.59 32.7461 182.722 32.906 182.982 33.0107C183.242 33.1155 183.562 33.1927 183.938 33.2478C184.314 33.3029 184.684 33.3746 185.054 33.4628C185.425 33.551 185.74 33.7274 185.999 34.0031C186.259 34.2732 186.392 34.6425 186.392 35.1001C186.392 35.69 186.143 36.1531 185.64 36.4948C185.143 36.8422 184.457 37.0131 183.595 37.0131" fill="white"/>
<path d="M190.194 35.0891C190.487 35.3813 190.873 35.5301 191.349 35.5301C191.824 35.5301 192.211 35.3813 192.504 35.0891C192.797 34.7969 192.946 34.4055 192.946 33.9149C192.946 33.4242 192.797 33.0328 192.504 32.7351C192.211 32.4429 191.824 32.2941 191.349 32.2941C190.873 32.2941 190.487 32.4429 190.194 32.7351C189.901 33.0328 189.757 33.4242 189.757 33.9149C189.757 34.4055 189.906 34.7969 190.194 35.0891ZM193.758 36.1641C193.15 36.7374 192.343 37.0186 191.343 37.0186C190.343 37.0186 189.542 36.7319 188.928 36.1641C188.32 35.5963 188.016 34.8465 188.016 33.9149C188.016 32.9832 188.32 32.2224 188.928 31.6546C189.536 31.0868 190.343 30.8001 191.343 30.8001C192.343 30.8001 193.145 31.0868 193.758 31.6546C194.366 32.2279 194.67 32.9777 194.67 33.9149C194.67 34.8521 194.366 35.5963 193.758 36.1641ZM192.194 30.0338C191.879 30.0338 191.559 29.9401 191.233 29.7472C190.907 29.5542 190.702 29.4605 190.608 29.4605C190.476 29.4605 190.393 29.5212 190.354 29.6479C190.277 29.7858 190.194 29.8519 190.111 29.8519H189.193C189.033 29.8519 188.961 29.7747 188.978 29.6204C189.017 29.1794 189.171 28.8265 189.437 28.5674C189.702 28.3083 190.05 28.176 190.481 28.176C190.802 28.176 191.128 28.2697 191.448 28.4682C191.769 28.6612 191.973 28.7604 192.067 28.7604C192.2 28.7604 192.288 28.6887 192.332 28.5564C192.382 28.4296 192.46 28.3635 192.565 28.3635H193.487C193.648 28.3635 193.72 28.4406 193.703 28.595C193.664 29.036 193.51 29.3888 193.233 29.6479C192.962 29.9071 192.62 30.0394 192.2 30.0394" fill="white"/>
<path d="M198.074 33.4077H200.964C200.948 33.0328 200.815 32.7241 200.567 32.487C200.318 32.25 199.992 32.1342 199.588 32.1342C199.185 32.1342 198.859 32.25 198.577 32.487C198.301 32.7241 198.129 33.0328 198.074 33.4077ZM199.649 37.0186C198.654 37.0186 197.853 36.7319 197.245 36.1641C196.632 35.5963 196.328 34.8465 196.328 33.9149C196.328 32.9832 196.626 32.2224 197.218 31.6546C197.809 31.0868 198.588 30.8001 199.55 30.8001C200.511 30.8001 201.285 31.0813 201.849 31.6436C202.418 32.2059 202.7 32.9446 202.7 33.8652C202.7 33.9149 202.7 33.981 202.694 34.0692C202.694 34.1574 202.694 34.2291 202.694 34.2732C202.672 34.411 202.584 34.4772 202.44 34.4772H198.096C198.196 34.8355 198.389 35.1222 198.671 35.3316C198.953 35.5356 199.296 35.6404 199.688 35.6404C200.136 35.6404 200.462 35.5246 200.677 35.282C200.782 35.2049 200.882 35.1663 200.97 35.1608H202.329C202.418 35.1608 202.484 35.1828 202.517 35.2269C202.551 35.271 202.551 35.3316 202.517 35.3978C202.307 35.894 201.948 36.2854 201.44 36.5775C200.931 36.8642 200.34 37.0131 199.655 37.0131" fill="white"/>
<path d="M207.209 37.0186C206.364 37.0186 205.673 36.8532 205.142 36.5169C204.612 36.1861 204.302 35.7175 204.208 35.1222C204.186 34.9623 204.258 34.8796 204.441 34.8796L205.629 34.8906C205.734 34.8906 205.822 34.9457 205.894 35.0615C206.065 35.497 206.502 35.712 207.209 35.712C207.508 35.712 207.751 35.6624 207.933 35.5632C208.116 35.464 208.204 35.3372 208.204 35.1773C208.204 34.9678 208.077 34.819 207.817 34.7252C207.557 34.637 207.242 34.5654 206.872 34.5213C206.502 34.4772 206.132 34.411 205.761 34.3228C205.391 34.2346 205.076 34.0527 204.816 33.777C204.557 33.5069 204.43 33.132 204.43 32.669C204.43 32.1011 204.678 31.6436 205.17 31.3018C205.662 30.9545 206.308 30.7836 207.115 30.7836C207.872 30.7836 208.508 30.9434 209.022 31.2577C209.53 31.5774 209.829 31.9964 209.912 32.5146C209.934 32.6745 209.862 32.7572 209.696 32.7572H208.497C208.392 32.7572 208.309 32.7075 208.254 32.6083C208.182 32.4319 208.044 32.2941 207.834 32.1838C207.629 32.0736 207.397 32.024 207.143 32.024C206.861 32.024 206.629 32.0681 206.458 32.1618C206.286 32.2555 206.198 32.3768 206.198 32.5311C206.198 32.7461 206.331 32.906 206.59 33.0107C206.85 33.1155 207.171 33.1927 207.546 33.2478C207.922 33.3029 208.292 33.3746 208.663 33.4628C209.033 33.551 209.348 33.7274 209.608 34.0031C209.867 34.2732 210 34.6425 210 35.1001C210 35.69 209.751 36.1531 209.248 36.4948C208.751 36.8422 208.066 37.0131 207.204 37.0131" fill="white"/>
<path d="M112.505 33.6778L115.616 35.9271V37.9668C115.616 40.7508 117.882 43.0055 120.684 43.0055H129.52C132.316 43.0055 134.588 40.7508 134.588 37.9668V29.3944C134.588 26.6104 132.322 24.3557 129.52 24.3557H120.684C117.887 24.3557 115.616 26.6104 115.616 29.3944V31.4341L112.505 33.6833V33.6778Z" fill="#F7B713"/>
<path fill-rule="evenodd" clip-rule="evenodd" d="M125.188 28.7494C127.923 28.7494 130.139 30.9545 130.139 33.6723C130.139 36.3902 127.923 38.5953 125.188 38.5953C122.452 38.5953 120.236 36.3902 120.236 33.6723C120.236 30.9545 122.452 28.7494 125.188 28.7494ZM127.116 33.9645L124.42 35.5412C124.37 35.5687 124.309 35.5853 124.254 35.5853C124.198 35.5853 124.143 35.5687 124.093 35.5412C123.988 35.4805 123.928 35.3703 123.928 35.249V32.1012C123.928 31.9799 123.994 31.8696 124.093 31.809C124.193 31.7539 124.32 31.7539 124.42 31.809L127.116 33.3857C127.216 33.4463 127.282 33.5566 127.282 33.6723C127.282 33.7936 127.221 33.9039 127.116 33.959" fill="#E42170"/>
<path d="M267.94 17.45C267.46 17.45 267.07 17.83 267.07 18.31V25.36C267.07 25.83 267.46 26.22 267.94 26.22C268.42 26.22 268.81 25.84 268.81 25.36V18.31C268.81 17.84 268.42 17.45 267.94 17.45Z" fill="white"/>
<path d="M300.55 17.28C300.07 17.28 299.68 17.66 299.68 18.14V25.52C299.68 25.99 300.07 26.38 300.55 26.38C301.03 26.38 301.42 26 301.42 25.52V18.14C301.42 17.67 301.03 17.28 300.55 17.28Z" fill="white"/>
<path d="M273.38 16.7C272.9 16.7 272.51 17.08 272.51 17.56V26.09C272.51 26.56 272.9 26.95 273.38 26.95C273.86 26.95 274.25 26.57 274.25 26.09V17.56C274.25 17.09 273.86 16.7 273.38 16.7Z" fill="white"/>
<path d="M295.12 15.37C294.64 15.37 294.25 15.75 294.25 16.23V27.44C294.25 27.91 294.64 28.3 295.12 28.3C295.6 28.3 295.99 27.92 295.99 27.44V16.23C295.99 15.76 295.6 15.37 295.12 15.37Z" fill="white"/>
<path d="M278.81 13.88C278.33 13.88 277.94 14.26 277.94 14.74V28.91C277.94 29.38 278.33 29.77 278.81 29.77C279.29 29.77 279.68 29.39 279.68 28.91V14.74C279.68 14.27 279.29 13.88 278.81 13.88Z" fill="white"/>
<path d="M284.25 9.45001C283.77 9.45001 283.38 9.83001 283.38 10.31V33.35C283.38 33.82 283.77 34.21 284.25 34.21C284.73 34.21 285.12 33.83 285.12 33.35V10.31C285.12 9.84001 284.73 9.45001 284.25 9.45001Z" fill="white"/>
<path d="M289.68 10.25C289.2 10.25 288.81 10.63 288.81 11.11V32.55C288.81 33.02 289.2 33.41 289.68 33.41C290.16 33.41 290.55 33.03 290.55 32.55V11.1C290.55 10.63 290.16 10.24 289.68 10.24" fill="white"/>
<path d="M333.16 17.28C332.68 17.28 332.29 17.66 332.29 18.14V25.52C332.29 25.99 332.68 26.38 333.16 26.38C333.64 26.38 334.03 26 334.03 25.52V18.14C334.03 17.67 333.64 17.28 333.16 17.28Z" fill="white"/>
<path d="M305.99 16.7C305.51 16.7 305.12 17.08 305.12 17.56V26.09C305.12 26.56 305.51 26.95 305.99 26.95C306.47 26.95 306.86 26.57 306.86 26.09V17.56C306.86 17.09 306.47 16.7 305.99 16.7Z" fill="white"/>
<path d="M327.73 15.37C327.25 15.37 326.86 15.75 326.86 16.23V27.44C326.86 27.91 327.25 28.3 327.73 28.3C328.21 28.3 328.6 27.92 328.6 27.44V16.23C328.6 15.76 328.21 15.37 327.73 15.37Z" fill="white"/>
<path d="M311.42 13.88C310.94 13.88 310.55 14.26 310.55 14.74V28.91C310.55 29.38 310.94 29.77 311.42 29.77C311.9 29.77 312.29 29.39 312.29 28.91V14.74C312.29 14.27 311.9 13.88 311.42 13.88Z" fill="white"/>
<path d="M316.86 9.45001C316.38 9.45001 315.99 9.83001 315.99 10.31V33.35C315.99 33.82 316.38 34.21 316.86 34.21C317.34 34.21 317.73 33.83 317.73 33.35V10.31C317.73 9.84001 317.34 9.45001 316.86 9.45001Z" fill="white"/>
<path d="M322.29 10.25C321.81 10.25 321.42 10.63 321.42 11.11V32.55C321.42 33.02 321.81 33.41 322.29 33.41C322.77 33.41 323.16 33.03 323.16 32.55V11.1C323.16 10.63 322.77 10.24 322.29 10.24" fill="white"/>
<path d="M243.89 28.38C243.65 28.67 243.4 28.95 243.13 29.21C238.59 33.75 231.23 33.75 226.68 29.21C222.14 24.67 222.14 17.31 226.68 12.76C231.22 8.22 238.58 8.22 243.13 12.76L239.41 16.48C236.93 14 232.9 14 230.41 16.48C227.93 18.96 227.93 22.99 230.41 25.48C232.62 27.69 236.1 27.97 238.64 26.14V20.99H243.89V28.37V28.38ZM250.98 20.99C250.98 12.16 243.83 5 234.99 5C226.16 5 219 12.16 219 20.99C219 29.82 226.16 36.98 234.99 36.98C239.8 36.98 244.36 34.81 247.4 31.08C246.18 30.3 245.82 28.67 246.6 27.45C247.33 26.31 248.79 25.91 250 26.52C250.65 24.75 250.98 22.88 250.98 20.99Z" fill="white"/>
<path d="M248.82 30.23C249.57 30.23 250.17 29.62 250.17 28.88C250.17 28.14 249.56 27.53 248.82 27.53C248.08 27.53 247.47 28.14 247.47 28.88C247.47 29.63 248.08 30.23 248.82 30.23Z" fill="white"/>
</g>
<defs>
<clipPath id="clip0_40_3886">
<rect width="335" height="43" fill="white"/>
</clipPath>
</defs>
</svg>
