<svg width="84" height="385" viewBox="0 0 84 385" fill="none" xmlns="http://www.w3.org/2000/svg">
<g clip-path="url(#clip0_34_1389)">
<path d="M84.0001 360.881C84.0001 365.861 82.9297 370.431 80.809 374.601C78.6782 378.77 75.217 382.24 70.4053 384.99L63.4728 374.101C66.7139 372.481 69.0748 370.441 70.5353 367.981C72.0058 365.521 72.7461 362.911 72.7461 360.151C72.7461 357.212 72.0859 354.902 70.7654 353.222C69.4449 351.542 67.7043 350.702 65.5435 350.702C63.3827 350.702 61.7622 351.362 60.5017 352.682C59.2413 354.002 58.2209 355.762 57.4406 357.941C56.6603 360.131 55.9401 362.521 55.2799 365.101C54.0194 369.961 51.9387 373.831 49.0276 376.711C46.1166 379.59 42.2952 381.03 37.5435 381.03C33.7622 381.03 30.461 380.1 27.64 378.24C24.819 376.381 22.6282 373.781 21.0676 370.461C19.5071 367.131 18.7268 363.251 18.7268 358.801C18.7268 353.882 19.7472 349.772 21.7879 346.472C23.8286 343.172 26.7097 340.352 30.431 338.013L37.0934 348.812C34.6325 350.312 32.8318 351.872 31.6914 353.492C30.551 355.112 29.9808 357.092 29.9808 359.431C29.9808 361.951 30.6111 364.041 31.8715 365.681C33.132 367.331 34.8126 368.151 36.9133 368.151C39.2541 368.151 40.9547 367.181 41.9951 365.231C43.0455 363.281 43.9958 360.931 44.8261 358.171C45.4263 356.312 46.1366 354.232 46.9369 351.922C47.7472 349.612 48.8576 347.382 50.2681 345.212C51.6786 343.052 53.5592 341.282 55.8901 339.902C58.2309 338.522 61.202 337.833 64.8033 337.833C68.5846 337.833 71.9158 338.762 74.7968 340.622C77.6778 342.482 79.9287 345.122 81.5492 348.542C83.1698 351.962 83.9801 356.072 83.9801 360.871L84.0001 360.881Z" fill="white"/>
<path d="M84.0001 306.794C84.0001 311.894 82.9597 316.364 80.899 320.203C78.8282 324.043 75.9472 327.013 72.2559 329.113C68.5645 331.213 64.323 332.263 59.5213 332.263H19.8071V319.663H58.1608C62.6024 319.663 66.1037 318.603 68.6546 316.474C71.2055 314.344 72.4759 311.114 72.4759 306.794C72.4759 302.474 71.2055 299.255 68.6546 297.125C66.1037 294.995 62.6124 293.925 58.1608 293.925H19.8071V281.325H59.5113C64.313 281.325 68.5545 282.375 72.2459 284.475C75.9372 286.575 78.8182 289.525 80.8889 293.335C82.9597 297.145 83.9901 301.634 83.9901 306.794H84.0001Z" fill="white"/>
<path d="M82.8296 273.226H19.8071V257.567L47.6271 244.517C50.8682 243.017 53.5392 241.808 55.6399 240.868C57.7407 239.938 59.4813 239.218 60.8618 238.708C62.2423 238.198 63.4427 237.798 64.4631 237.488C63.4427 237.188 62.2423 236.798 60.8618 236.318C59.4813 235.838 57.7407 235.138 55.6399 234.208C53.5392 233.278 50.8682 232.068 47.6271 230.558L19.8071 217.419V202.3H82.8296V214.629H57.3505C54.4695 214.629 52.0086 214.599 49.9679 214.539C47.9272 214.479 46.0465 214.389 44.3459 214.269C42.6353 214.149 40.8847 213.969 39.074 213.729L82.8296 234.698V240.818L39.074 261.786C40.8747 261.546 42.6353 261.367 44.3459 261.247C46.0565 261.127 47.9372 261.037 49.9679 260.977C52.0086 260.917 54.4695 260.887 57.3505 260.887H82.8296V273.216V273.226Z" fill="white"/>
<path d="M15.6656 172.791L0 168.831V156.412L15.6656 164.332V172.791ZM82.8296 199.52L19.8071 173.781V162.892L82.8296 137.243V150.922L70.8553 155.242V181.521L82.8296 185.84V199.52ZM42.7653 170.631L59.9614 177.381V159.382L42.7653 166.131C40.3644 167.031 37.9636 167.781 35.5627 168.381C38.1436 168.981 40.5445 169.731 42.7653 170.631Z" fill="white"/>
<path d="M82.8296 134.453H19.8071V114.114C19.8071 107.034 21.4477 101.465 24.7089 97.4149C27.98 93.3651 32.7117 91.3352 38.8939 91.3352C43.8757 91.3352 47.8972 92.6752 50.9583 95.335C54.0193 98.0049 56.0601 101.715 57.0804 106.454L82.8296 88.8154V103.665L62.8425 117.074C61.582 117.914 60.0515 118.724 58.2509 119.504V121.844H82.8296V134.443V134.453ZM46.9068 121.854V114.834C46.9068 111.414 46.2366 108.774 44.8861 106.914C43.5356 105.055 41.5749 104.125 38.984 104.125C36.3931 104.125 34.5224 105.055 33.1819 106.914C31.8314 108.774 31.1512 111.414 31.1512 114.834V121.854H46.9068Z" fill="white"/>
<path d="M82.8296 84.8656H19.8071V72.2662H82.8296V84.8656Z" fill="white"/>
<path d="M84.0001 32.6683C84.0001 37.3481 83.1598 41.6778 81.4792 45.6676C79.7986 49.6574 77.4577 53.1373 74.4567 56.1071C71.4556 59.0769 67.9943 61.3868 64.0529 63.0367C60.1215 64.6867 55.9 65.5066 51.3984 65.5066C46.8968 65.5066 42.6653 64.6867 38.7039 63.0367C34.7425 61.3868 31.2612 59.0769 28.2602 56.1071C25.2591 53.1373 22.9082 49.6574 21.1976 45.6676C19.487 41.6778 18.6367 37.3381 18.6367 32.6683C18.6367 27.9986 19.487 23.6688 21.1976 19.709C22.9082 15.7492 25.2691 12.2994 28.2602 9.35952C31.2612 6.41968 34.7425 4.1298 38.7039 2.47988C42.6653 0.829967 46.8968 0.0100098 51.3984 0.0100098C55.9 0.0100098 60.1215 0.839967 64.0529 2.47988C67.9843 4.1298 71.4556 6.42968 74.4567 9.35952C77.4577 12.2994 79.7986 15.7492 81.4792 19.709C83.1598 23.6688 84.0001 27.9886 84.0001 32.6683ZM72.2959 32.6683C72.2959 28.5885 71.3455 25.0987 69.4549 22.1789C67.5642 19.269 65.0333 17.0191 61.8522 15.4292C58.671 13.8393 55.1898 13.0493 51.4084 13.0493C47.6271 13.0493 44.0558 13.8493 40.8747 15.4292C37.6935 17.0191 35.1426 19.269 33.2219 22.1789C31.3012 25.0887 30.3409 28.5885 30.3409 32.6683C30.3409 36.7481 31.3012 40.2679 33.2219 43.2378C35.1426 46.2076 37.6935 48.4875 40.8747 50.0774C44.0558 51.6673 47.5671 52.4573 51.4084 52.4573C55.2498 52.4573 58.671 51.6673 61.8522 50.0774C65.0333 48.4875 67.5742 46.2076 69.4549 43.2378C71.3455 40.2679 72.2959 36.7481 72.2959 32.6683Z" fill="white"/>
</g>
<defs>
<clipPath id="clip0_34_1389">
<rect width="84" height="385" fill="white"/>
</clipPath>
</defs>
</svg>
